<svg width="324" height="192" viewBox="0 0 324 192" fill="none" xmlns="http://www.w3.org/2000/svg">
<rect width="324" height="192" rx="10" fill="url(#paint0_linear_64_920)"/>
<path d="M31.4411 20.4306C31.8793 20.4306 32.2996 20.2763 32.6095 20.0018C32.9194 19.7272 33.0935 19.3548 33.0935 18.9665C33.0935 18.5782 32.9194 18.2058 32.6095 17.9312C32.2996 17.6566 31.8793 17.5024 31.4411 17.5024C31.0028 17.5024 30.5825 17.6566 30.2726 17.9312C29.9627 18.2058 29.7886 18.5782 29.7886 18.9665C29.7886 19.3548 29.9627 19.7272 30.2726 20.0018C30.5825 20.2763 31.0028 20.4306 31.4411 20.4306ZM33.0627 13.5102C32.6043 13.1802 32.0317 13 31.4411 13C30.8505 13 30.2778 13.1802 29.8195 13.5102L18.7988 21.4457C17.4592 22.414 18.2303 24.3349 19.9577 24.3349H20.4248V32.534C19.1161 33.1255 18.2215 34.3299 18.2215 35.7218V37.0239C18.2215 37.2828 18.3376 37.5311 18.5442 37.7141C18.7508 37.8972 19.031 38 19.3232 38H43.559C43.8512 38 44.1314 37.8972 44.338 37.7141C44.5446 37.5311 44.6606 37.2828 44.6606 37.0239V35.7218C44.6606 34.3319 43.7661 33.1255 42.4574 32.534V24.3349H42.9245C44.6518 24.3349 45.423 22.412 44.0812 21.4457L33.0649 13.5083L33.0627 13.5102ZM31.2119 15.0251C31.2774 14.9782 31.3591 14.9526 31.4433 14.9526C31.5275 14.9526 31.6091 14.9782 31.6746 15.0251L41.8867 22.3828H20.9932L31.2119 15.0231V15.0251ZM40.2541 32.1435H38.0508V24.3349H40.2541V32.1435ZM35.8476 32.1435H32.5427V24.3349H35.8476V32.1435ZM30.3394 32.1435H27.0346V24.3349H30.3394V32.1435ZM40.6221 34.0957C41.6356 34.0957 42.4574 34.8238 42.4574 35.7218V36.0478H20.4248V35.7218C20.4248 34.8238 21.2466 34.0957 22.2601 34.0957H40.6221ZM24.8313 32.1435H22.628V24.3349H24.8313V32.1435Z" fill="white"/>
<path d="M53.0114 34V22.3636H60.7159V24.392H55.4716V27.1648H60.2045V29.1932H55.4716V34H53.0114ZM61.6889 22.3636H64.4446L67.098 27.375H67.2116L69.8651 22.3636H72.6207L68.3764 29.8864V34H65.9332V29.8864L61.6889 22.3636ZM76.4247 22.3636V34H73.9645V22.3636H76.4247ZM82.152 34V22.3636H86.8111C87.6671 22.3636 88.3812 22.4905 88.9531 22.7443C89.5251 22.9981 89.955 23.3504 90.2429 23.8011C90.5308 24.2481 90.6747 24.7633 90.6747 25.3466C90.6747 25.8011 90.5838 26.2008 90.402 26.5455C90.2202 26.8864 89.9702 27.1667 89.652 27.3864C89.3376 27.6023 88.9777 27.7557 88.5724 27.8466V27.9602C89.0156 27.9792 89.4304 28.1042 89.8168 28.3352C90.2069 28.5663 90.5232 28.8902 90.7656 29.3068C91.008 29.7197 91.1293 30.2121 91.1293 30.7841C91.1293 31.4015 90.9759 31.9527 90.669 32.4375C90.366 32.9186 89.9171 33.2992 89.3224 33.5795C88.7277 33.8598 87.9948 34 87.1236 34H82.152ZM84.6122 31.9886H86.6179C87.3035 31.9886 87.8035 31.858 88.1179 31.5966C88.4323 31.3314 88.5895 30.9792 88.5895 30.5398C88.5895 30.2178 88.5118 29.9337 88.3565 29.6875C88.2012 29.4413 87.9796 29.2481 87.6918 29.108C87.4077 28.9678 87.0687 28.8977 86.6747 28.8977H84.6122V31.9886ZM84.6122 27.233H86.4361C86.7732 27.233 87.0724 27.1742 87.3338 27.0568C87.599 26.9356 87.8073 26.7652 87.9588 26.5455C88.1141 26.3258 88.1918 26.0625 88.1918 25.7557C88.1918 25.3352 88.0421 24.9962 87.7429 24.7386C87.4474 24.4811 87.027 24.3523 86.4815 24.3523H84.6122V27.233ZM94.7358 34H92.0994L96.1165 22.3636H99.2869L103.298 34H100.662L97.7472 25.0227H97.6562L94.7358 34ZM94.571 29.4261H100.798V31.3466H94.571V29.4261ZM114.432 22.3636V34H112.307L107.244 26.6761H107.159V34H104.699V22.3636H106.858L111.881 29.6818H111.983V22.3636H114.432ZM116.464 34V22.3636H118.925V27.4943H119.078L123.266 22.3636H126.214L121.896 27.5739L126.266 34H123.322L120.135 29.2159L118.925 30.6932V34H116.464Z" fill="white"/>
<path d="M42.4266 120.636L43.6411 124.19H43.6901L44.9046 120.636H45.6162L44.0459 125H43.2853L41.7149 120.636H42.4266ZM46.1697 125H45.4708L47.0411 120.636H47.8018L49.3721 125H48.6732L47.4396 121.429H47.4055L46.1697 125ZM46.2869 123.291H48.5539V123.845H46.2869V123.291ZM50.0022 125V120.636H50.6606V124.433H52.6379V125H50.0022ZM54.0473 120.636V125H53.3889V120.636H54.0473ZM56.4188 125H55.0061V120.636H56.4635C56.8911 120.636 57.2583 120.724 57.5651 120.898C57.8719 121.072 58.107 121.321 58.2703 121.646C58.4351 121.97 58.5175 122.359 58.5175 122.812C58.5175 123.266 58.4344 123.657 58.2682 123.984C58.1034 124.31 57.8648 124.562 57.5523 124.738C57.2398 124.913 56.862 125 56.4188 125ZM55.6645 124.425H56.3826C56.7149 124.425 56.9912 124.362 57.2114 124.237C57.4316 124.111 57.5963 123.928 57.7057 123.69C57.8151 123.45 57.8698 123.157 57.8698 122.812C57.8698 122.469 57.8151 122.179 57.7057 121.94C57.5978 121.702 57.4365 121.521 57.222 121.397C57.0076 121.273 56.7412 121.212 56.423 121.212H55.6645V124.425ZM41.83 128.203V127.636H45.2071V128.203H43.8456V132H43.1894V128.203H41.83ZM45.9534 132V127.636H46.6118V129.533H48.7872V127.636H49.4477V132H48.7872V130.097H46.6118V132H45.9534ZM50.4065 132V127.636H51.9619C52.3 127.636 52.5805 127.695 52.8035 127.811C53.028 127.928 53.1956 128.089 53.3064 128.295C53.4172 128.499 53.4726 128.736 53.4726 129.004C53.4726 129.271 53.4165 129.506 53.3043 129.71C53.1935 129.911 53.0258 130.068 52.8014 130.18C52.5784 130.293 52.2979 130.349 51.9598 130.349H50.7815V129.782H51.9001C52.1132 129.782 52.2865 129.751 52.42 129.69C52.555 129.629 52.6537 129.54 52.7162 129.424C52.7787 129.308 52.8099 129.168 52.8099 129.004C52.8099 128.839 52.778 128.697 52.7141 128.576C52.6516 128.455 52.5528 128.363 52.4179 128.299C52.2844 128.234 52.1089 128.201 51.8916 128.201H51.0649V132H50.4065ZM52.5606 130.031L53.6388 132H52.8888L51.832 130.031H52.5606ZM57.0798 127.636H57.7403V130.506C57.7403 130.812 57.6686 131.082 57.5251 131.318C57.3817 131.553 57.18 131.737 56.92 131.872C56.6601 132.006 56.3554 132.072 56.006 132.072C55.6579 132.072 55.354 132.006 55.094 131.872C54.8341 131.737 54.6324 131.553 54.4889 131.318C54.3454 131.082 54.2737 130.812 54.2737 130.506V127.636H54.9321V130.453C54.9321 130.651 54.9754 130.826 55.0621 130.979C55.1501 131.133 55.2744 131.254 55.4349 131.342C55.5954 131.428 55.7858 131.472 56.006 131.472C56.2276 131.472 56.4186 131.428 56.5791 131.342C56.741 131.254 56.8646 131.133 56.9499 130.979C57.0365 130.826 57.0798 130.651 57.0798 130.453V127.636Z" fill="white"/>
<path d="M23.7889 166.364H26.2207V174.477C26.2207 175.227 26.0521 175.879 25.715 176.432C25.3817 176.985 24.9177 177.411 24.323 177.71C23.7283 178.009 23.037 178.159 22.2491 178.159C21.5483 178.159 20.912 178.036 20.34 177.79C19.7718 177.54 19.3211 177.161 18.9877 176.653C18.6544 176.142 18.4896 175.5 18.4934 174.727H20.9423C20.9498 175.034 21.0123 175.297 21.1298 175.517C21.251 175.733 21.4158 175.9 21.6241 176.017C21.8362 176.131 22.0862 176.188 22.3741 176.188C22.6771 176.188 22.9328 176.123 23.1411 175.994C23.3533 175.862 23.5142 175.669 23.6241 175.415C23.7339 175.161 23.7889 174.848 23.7889 174.477V166.364ZM32.1525 178.17C31.2699 178.17 30.5067 177.983 29.8627 177.608C29.2226 177.229 28.7283 176.703 28.3798 176.028C28.0313 175.35 27.857 174.564 27.857 173.67C27.857 172.769 28.0313 171.981 28.3798 171.307C28.7283 170.629 29.2226 170.102 29.8627 169.727C30.5067 169.348 31.2699 169.159 32.1525 169.159C33.0351 169.159 33.7964 169.348 34.4366 169.727C35.0805 170.102 35.5767 170.629 35.9252 171.307C36.2737 171.981 36.448 172.769 36.448 173.67C36.448 174.564 36.2737 175.35 35.9252 176.028C35.5767 176.703 35.0805 177.229 34.4366 177.608C33.7964 177.983 33.0351 178.17 32.1525 178.17ZM32.1639 176.295C32.5654 176.295 32.9006 176.182 33.1695 175.955C33.4385 175.723 33.6411 175.409 33.7775 175.011C33.9177 174.614 33.9877 174.161 33.9877 173.653C33.9877 173.146 33.9177 172.693 33.7775 172.295C33.6411 171.898 33.4385 171.583 33.1695 171.352C32.9006 171.121 32.5654 171.006 32.1639 171.006C31.7586 171.006 31.4177 171.121 31.1411 171.352C30.8684 171.583 30.662 171.898 30.5218 172.295C30.3855 172.693 30.3173 173.146 30.3173 173.653C30.3173 174.161 30.3855 174.614 30.5218 175.011C30.662 175.409 30.8684 175.723 31.1411 175.955C31.4177 176.182 31.7586 176.295 32.1639 176.295ZM40.5105 178.165C39.9536 178.165 39.4574 178.068 39.0218 177.875C38.5862 177.678 38.2415 177.388 37.9877 177.006C37.7377 176.619 37.6127 176.138 37.6127 175.562C37.6127 175.078 37.7017 174.67 37.8798 174.341C38.0578 174.011 38.3002 173.746 38.607 173.545C38.9139 173.345 39.2623 173.193 39.6525 173.091C40.0464 172.989 40.4593 172.917 40.8911 172.875C41.3987 172.822 41.8078 172.773 42.1184 172.727C42.429 172.678 42.6544 172.606 42.7945 172.511C42.9347 172.417 43.0048 172.277 43.0048 172.091V172.057C43.0048 171.697 42.8911 171.419 42.6639 171.222C42.4404 171.025 42.1222 170.926 41.7093 170.926C41.2737 170.926 40.9271 171.023 40.6695 171.216C40.412 171.405 40.2415 171.644 40.1582 171.932L37.9195 171.75C38.0332 171.22 38.2567 170.761 38.59 170.375C38.9233 169.985 39.3533 169.686 39.8798 169.477C40.4101 169.265 41.0237 169.159 41.7207 169.159C42.2055 169.159 42.6695 169.216 43.1127 169.33C43.5597 169.443 43.9555 169.619 44.3002 169.858C44.6487 170.097 44.9233 170.403 45.1241 170.778C45.3248 171.15 45.4252 171.595 45.4252 172.114V178H43.1298V176.79H43.0616C42.9214 177.062 42.7339 177.303 42.4991 177.511C42.2642 177.716 41.982 177.877 41.6525 177.994C41.323 178.108 40.9423 178.165 40.5105 178.165ZM41.2036 176.494C41.5597 176.494 41.8741 176.424 42.1468 176.284C42.4195 176.14 42.6336 175.947 42.7889 175.705C42.9442 175.462 43.0218 175.187 43.0218 174.881V173.955C42.9461 174.004 42.8419 174.049 42.7093 174.091C42.5805 174.129 42.4347 174.165 42.2718 174.199C42.1089 174.229 41.9461 174.258 41.7832 174.284C41.6203 174.307 41.4726 174.328 41.34 174.347C41.0559 174.388 40.8078 174.455 40.5957 174.545C40.3836 174.636 40.2188 174.759 40.1014 174.915C39.9839 175.066 39.9252 175.256 39.9252 175.483C39.9252 175.812 40.0445 176.064 40.2832 176.239C40.5256 176.409 40.8324 176.494 41.2036 176.494ZM40.1866 168.199L38.84 168.182C38.84 167.458 39.018 166.903 39.3741 166.517C39.7339 166.131 40.1714 165.936 40.6866 165.932C40.9517 165.932 41.179 165.975 41.3684 166.062C41.5616 166.146 41.7339 166.244 41.8855 166.358C42.0408 166.472 42.1885 166.572 42.3286 166.659C42.4688 166.742 42.6203 166.784 42.7832 166.784C43.0029 166.78 43.1695 166.699 43.2832 166.54C43.4006 166.377 43.4593 166.165 43.4593 165.903L44.7832 165.943C44.7756 166.659 44.5938 167.212 44.2377 167.602C43.8817 167.989 43.448 168.184 42.9366 168.188C42.6525 168.188 42.4139 168.146 42.2207 168.062C42.0313 167.975 41.8646 167.877 41.7207 167.767C41.5767 167.653 41.4366 167.553 41.3002 167.466C41.1639 167.379 41.0105 167.335 40.84 167.335C40.643 167.335 40.4839 167.413 40.3627 167.568C40.2453 167.723 40.1866 167.934 40.1866 168.199ZM51.2462 178.17C50.3637 178.17 49.6004 177.983 48.9565 177.608C48.3163 177.229 47.822 176.703 47.4735 176.028C47.125 175.35 46.9508 174.564 46.9508 173.67C46.9508 172.769 47.125 171.981 47.4735 171.307C47.822 170.629 48.3163 170.102 48.9565 169.727C49.6004 169.348 50.3637 169.159 51.2462 169.159C52.1288 169.159 52.8902 169.348 53.5303 169.727C54.1743 170.102 54.6705 170.629 55.019 171.307C55.3675 171.981 55.5417 172.769 55.5417 173.67C55.5417 174.564 55.3675 175.35 55.019 176.028C54.6705 176.703 54.1743 177.229 53.5303 177.608C52.8902 177.983 52.1288 178.17 51.2462 178.17ZM51.2576 176.295C51.6591 176.295 51.9944 176.182 52.2633 175.955C52.5322 175.723 52.7349 175.409 52.8712 175.011C53.0114 174.614 53.0815 174.161 53.0815 173.653C53.0815 173.146 53.0114 172.693 52.8712 172.295C52.7349 171.898 52.5322 171.583 52.2633 171.352C51.9944 171.121 51.6591 171.006 51.2576 171.006C50.8523 171.006 50.5114 171.121 50.2349 171.352C49.9622 171.583 49.7557 171.898 49.6156 172.295C49.4792 172.693 49.411 173.146 49.411 173.653C49.411 174.161 49.4792 174.614 49.6156 175.011C49.7557 175.409 49.9622 175.723 50.2349 175.955C50.5114 176.182 50.8523 176.295 51.2576 176.295ZM65.2562 173.955H67.3471L68.3982 175.307L69.4323 176.511L71.3812 178.955H69.0857L67.7448 177.307L67.0573 176.33L65.2562 173.955ZM71.5573 172.182C71.5573 173.451 71.3168 174.53 70.8357 175.42C70.3585 176.311 69.707 176.991 68.8812 177.46C68.0592 177.926 67.135 178.159 66.1085 178.159C65.0744 178.159 64.1463 177.924 63.3244 177.455C62.5024 176.985 61.8528 176.305 61.3755 175.415C60.8982 174.525 60.6596 173.447 60.6596 172.182C60.6596 170.913 60.8982 169.833 61.3755 168.943C61.8528 168.053 62.5024 167.375 63.3244 166.909C64.1463 166.439 65.0744 166.205 66.1085 166.205C67.135 166.205 68.0592 166.439 68.8812 166.909C69.707 167.375 70.3585 168.053 70.8357 168.943C71.3168 169.833 71.5573 170.913 71.5573 172.182ZM69.063 172.182C69.063 171.36 68.9399 170.667 68.6937 170.102C68.4513 169.538 68.1085 169.11 67.6653 168.818C67.2221 168.527 66.7032 168.381 66.1085 168.381C65.5138 168.381 64.9948 168.527 64.5516 168.818C64.1085 169.11 63.7638 169.538 63.5176 170.102C63.2751 170.667 63.1539 171.36 63.1539 172.182C63.1539 173.004 63.2751 173.697 63.5176 174.261C63.7638 174.826 64.1085 175.254 64.5516 175.545C64.9948 175.837 65.5138 175.983 66.1085 175.983C66.7032 175.983 67.2221 175.837 67.6653 175.545C68.1085 175.254 68.4513 174.826 68.6937 174.261C68.9399 173.697 69.063 173.004 69.063 172.182ZM78.9309 174.284V169.273H81.3514V178H79.0275V176.415H78.9366C78.7396 176.926 78.412 177.337 77.9536 177.648C77.4991 177.958 76.9442 178.114 76.2889 178.114C75.7055 178.114 75.1923 177.981 74.7491 177.716C74.3059 177.451 73.9593 177.074 73.7093 176.585C73.4631 176.097 73.3381 175.511 73.3343 174.83V169.273H75.7548V174.398C75.7586 174.913 75.8968 175.32 76.1695 175.619C76.4423 175.919 76.8078 176.068 77.2661 176.068C77.5578 176.068 77.8305 176.002 78.0843 175.869C78.3381 175.733 78.5427 175.532 78.698 175.267C78.857 175.002 78.9347 174.674 78.9309 174.284ZM83.2874 178V169.273H85.7079V178H83.2874ZM84.5034 168.148C84.1435 168.148 83.8348 168.028 83.5772 167.79C83.3234 167.547 83.1965 167.258 83.1965 166.92C83.1965 166.587 83.3234 166.301 83.5772 166.062C83.8348 165.82 84.1435 165.699 84.5034 165.699C84.8632 165.699 85.17 165.82 85.4238 166.062C85.6814 166.301 85.8102 166.587 85.8102 166.92C85.8102 167.258 85.6814 167.547 85.4238 167.79C85.17 168.028 84.8632 168.148 84.5034 168.148ZM90.0673 172.955V178H87.6468V169.273H89.9536V170.812H90.0559C90.2491 170.305 90.573 169.903 91.0275 169.608C91.482 169.309 92.0332 169.159 92.6809 169.159C93.287 169.159 93.8154 169.292 94.2661 169.557C94.7169 169.822 95.0673 170.201 95.3173 170.693C95.5673 171.182 95.6923 171.765 95.6923 172.443V178H93.2718V172.875C93.2756 172.341 93.1392 171.924 92.8627 171.625C92.5862 171.322 92.2055 171.17 91.7207 171.17C91.3949 171.17 91.107 171.241 90.857 171.381C90.6108 171.521 90.4177 171.725 90.2775 171.994C90.1411 172.259 90.0711 172.58 90.0673 172.955ZM102.242 169.273V171.091H96.9863V169.273H102.242ZM98.1795 167.182H100.6V175.318C100.6 175.542 100.634 175.716 100.702 175.841C100.77 175.962 100.865 176.047 100.986 176.097C101.111 176.146 101.255 176.17 101.418 176.17C101.532 176.17 101.645 176.161 101.759 176.142C101.873 176.119 101.96 176.102 102.02 176.091L102.401 177.892C102.28 177.93 102.109 177.973 101.89 178.023C101.67 178.076 101.403 178.108 101.089 178.119C100.505 178.142 99.9939 178.064 99.5545 177.886C99.1189 177.708 98.7799 177.432 98.5374 177.057C98.295 176.682 98.1757 176.208 98.1795 175.636V167.182ZM106.307 178.165C105.751 178.165 105.254 178.068 104.819 177.875C104.383 177.678 104.038 177.388 103.785 177.006C103.535 176.619 103.41 176.138 103.41 175.562C103.41 175.078 103.499 174.67 103.677 174.341C103.855 174.011 104.097 173.746 104.404 173.545C104.711 173.345 105.059 173.193 105.449 173.091C105.843 172.989 106.256 172.917 106.688 172.875C107.196 172.822 107.605 172.773 107.915 172.727C108.226 172.678 108.451 172.606 108.591 172.511C108.732 172.417 108.802 172.277 108.802 172.091V172.057C108.802 171.697 108.688 171.419 108.461 171.222C108.237 171.025 107.919 170.926 107.506 170.926C107.071 170.926 106.724 171.023 106.466 171.216C106.209 171.405 106.038 171.644 105.955 171.932L103.716 171.75C103.83 171.22 104.054 170.761 104.387 170.375C104.72 169.985 105.15 169.686 105.677 169.477C106.207 169.265 106.821 169.159 107.518 169.159C108.002 169.159 108.466 169.216 108.91 169.33C109.357 169.443 109.752 169.619 110.097 169.858C110.446 170.097 110.72 170.403 110.921 170.778C111.122 171.15 111.222 171.595 111.222 172.114V178H108.927V176.79H108.858C108.718 177.062 108.531 177.303 108.296 177.511C108.061 177.716 107.779 177.877 107.449 177.994C107.12 178.108 106.739 178.165 106.307 178.165ZM107.001 176.494C107.357 176.494 107.671 176.424 107.944 176.284C108.216 176.14 108.43 175.947 108.586 175.705C108.741 175.462 108.819 175.187 108.819 174.881V173.955C108.743 174.004 108.639 174.049 108.506 174.091C108.377 174.129 108.232 174.165 108.069 174.199C107.906 174.229 107.743 174.258 107.58 174.284C107.417 174.307 107.269 174.328 107.137 174.347C106.853 174.388 106.605 174.455 106.393 174.545C106.18 174.636 106.016 174.759 105.898 174.915C105.781 175.066 105.722 175.256 105.722 175.483C105.722 175.812 105.841 176.064 106.08 176.239C106.322 176.409 106.629 176.494 107.001 176.494ZM105.983 168.199L104.637 168.182C104.637 167.458 104.815 166.903 105.171 166.517C105.531 166.131 105.968 165.936 106.483 165.932C106.749 165.932 106.976 165.975 107.165 166.062C107.358 166.146 107.531 166.244 107.682 166.358C107.838 166.472 107.985 166.572 108.126 166.659C108.266 166.742 108.417 166.784 108.58 166.784C108.8 166.78 108.966 166.699 109.08 166.54C109.197 166.377 109.256 166.165 109.256 165.903L110.58 165.943C110.572 166.659 110.391 167.212 110.035 167.602C109.679 167.989 109.245 168.184 108.733 168.188C108.449 168.188 108.211 168.146 108.018 168.062C107.828 167.975 107.661 167.877 107.518 167.767C107.374 167.653 107.233 167.553 107.097 167.466C106.961 167.379 106.807 167.335 106.637 167.335C106.44 167.335 106.281 167.413 106.16 167.568C106.042 167.723 105.983 167.934 105.983 168.199ZM117.043 178.17C116.161 178.17 115.397 177.983 114.753 177.608C114.113 177.229 113.619 176.703 113.27 176.028C112.922 175.35 112.748 174.564 112.748 173.67C112.748 172.769 112.922 171.981 113.27 171.307C113.619 170.629 114.113 170.102 114.753 169.727C115.397 169.348 116.161 169.159 117.043 169.159C117.926 169.159 118.687 169.348 119.327 169.727C119.971 170.102 120.467 170.629 120.816 171.307C121.164 171.981 121.339 172.769 121.339 173.67C121.339 174.564 121.164 175.35 120.816 176.028C120.467 176.703 119.971 177.229 119.327 177.608C118.687 177.983 117.926 178.17 117.043 178.17ZM117.054 176.295C117.456 176.295 117.791 176.182 118.06 175.955C118.329 175.723 118.532 175.409 118.668 175.011C118.808 174.614 118.878 174.161 118.878 173.653C118.878 173.146 118.808 172.693 118.668 172.295C118.532 171.898 118.329 171.583 118.06 171.352C117.791 171.121 117.456 171.006 117.054 171.006C116.649 171.006 116.308 171.121 116.032 171.352C115.759 171.583 115.553 171.898 115.412 172.295C115.276 172.693 115.208 173.146 115.208 173.653C115.208 174.161 115.276 174.614 115.412 175.011C115.553 175.409 115.759 175.723 116.032 175.955C116.308 176.182 116.649 176.295 117.054 176.295Z" fill="white"/>
<path d="M23.6241 87.2557C22.6468 87.2519 21.8059 87.0114 21.1014 86.5341C20.4006 86.0568 19.8608 85.3655 19.482 84.4602C19.107 83.5549 18.9214 82.4659 18.9252 81.1932C18.9252 79.9242 19.1127 78.8428 19.4877 77.9489C19.8665 77.0549 20.4063 76.375 21.107 75.9091C21.8116 75.4394 22.6506 75.2045 23.6241 75.2045C24.5976 75.2045 25.4347 75.4394 26.1355 75.9091C26.84 76.3788 27.3817 77.0606 27.7605 77.9545C28.1392 78.8447 28.3267 79.9242 28.323 81.1932C28.323 82.4697 28.1336 83.5606 27.7548 84.4659C27.3798 85.3712 26.8419 86.0625 26.1411 86.5398C25.4404 87.017 24.6014 87.2557 23.6241 87.2557ZM23.6241 85.2159C24.2908 85.2159 24.823 84.8807 25.2207 84.2102C25.6184 83.5398 25.8154 82.5341 25.8116 81.1932C25.8116 80.3106 25.7207 79.5758 25.5389 78.9886C25.3608 78.4015 25.107 77.9602 24.7775 77.6648C24.4517 77.3693 24.0673 77.2216 23.6241 77.2216C22.9612 77.2216 22.4309 77.553 22.0332 78.2159C21.6355 78.8788 21.4347 79.8712 21.4309 81.1932C21.4309 82.0871 21.5199 82.8333 21.698 83.4318C21.8798 84.0265 22.1355 84.4735 22.465 84.7727C22.7945 85.0682 23.1809 85.2159 23.6241 85.2159ZM34.6397 87.2557C33.6624 87.2519 32.8215 87.0114 32.117 86.5341C31.4162 86.0568 30.8765 85.3655 30.4977 84.4602C30.1227 83.5549 29.9371 82.4659 29.9409 81.1932C29.9409 79.9242 30.1284 78.8428 30.5034 77.9489C30.8821 77.0549 31.4219 76.375 32.1227 75.9091C32.8272 75.4394 33.6662 75.2045 34.6397 75.2045C35.6132 75.2045 36.4503 75.4394 37.1511 75.9091C37.8556 76.3788 38.3973 77.0606 38.7761 77.9545C39.1549 78.8447 39.3424 79.9242 39.3386 81.1932C39.3386 82.4697 39.1492 83.5606 38.7704 84.4659C38.3954 85.3712 37.8575 86.0625 37.1568 86.5398C36.456 87.017 35.617 87.2557 34.6397 87.2557ZM34.6397 85.2159C35.3064 85.2159 35.8386 84.8807 36.2363 84.2102C36.634 83.5398 36.831 82.5341 36.8272 81.1932C36.8272 80.3106 36.7363 79.5758 36.5545 78.9886C36.3765 78.4015 36.1227 77.9602 35.7931 77.6648C35.4674 77.3693 35.0829 77.2216 34.6397 77.2216C33.9768 77.2216 33.4465 77.553 33.0488 78.2159C32.6511 78.8788 32.4503 79.8712 32.4465 81.1932C32.4465 82.0871 32.5355 82.8333 32.7136 83.4318C32.8954 84.0265 33.1511 84.4735 33.4806 84.7727C33.8102 85.0682 34.1965 85.2159 34.6397 85.2159ZM45.6553 87.2557C44.6781 87.2519 43.8372 87.0114 43.1326 86.5341C42.4319 86.0568 41.8921 85.3655 41.5133 84.4602C41.1383 83.5549 40.9527 82.4659 40.9565 81.1932C40.9565 79.9242 41.144 78.8428 41.519 77.9489C41.8978 77.0549 42.4375 76.375 43.1383 75.9091C43.8428 75.4394 44.6819 75.2045 45.6553 75.2045C46.6288 75.2045 47.4659 75.4394 48.1667 75.9091C48.8712 76.3788 49.4129 77.0606 49.7917 77.9545C50.1705 78.8447 50.358 79.9242 50.3542 81.1932C50.3542 82.4697 50.1648 83.5606 49.786 84.4659C49.411 85.3712 48.8731 86.0625 48.1724 86.5398C47.4716 87.017 46.6326 87.2557 45.6553 87.2557ZM45.6553 85.2159C46.322 85.2159 46.8542 84.8807 47.2519 84.2102C47.6497 83.5398 47.8466 82.5341 47.8428 81.1932C47.8428 80.3106 47.7519 79.5758 47.5701 78.9886C47.3921 78.4015 47.1383 77.9602 46.8087 77.6648C46.483 77.3693 46.0985 77.2216 45.6553 77.2216C44.9925 77.2216 44.4622 77.553 44.0644 78.2159C43.6667 78.8788 43.4659 79.8712 43.4622 81.1932C43.4622 82.0871 43.5512 82.8333 43.7292 83.4318C43.911 84.0265 44.1667 84.4735 44.4962 84.7727C44.8258 85.0682 45.2122 85.2159 45.6553 85.2159ZM56.671 87.2557C55.6937 87.2519 54.8528 87.0114 54.1482 86.5341C53.4475 86.0568 52.9077 85.3655 52.5289 84.4602C52.1539 83.5549 51.9683 82.4659 51.9721 81.1932C51.9721 79.9242 52.1596 78.8428 52.5346 77.9489C52.9134 77.0549 53.4532 76.375 54.1539 75.9091C54.8585 75.4394 55.6975 75.2045 56.671 75.2045C57.6445 75.2045 58.4816 75.4394 59.1823 75.9091C59.8869 76.3788 60.4285 77.0606 60.8073 77.9545C61.1861 78.8447 61.3736 79.9242 61.3698 81.1932C61.3698 82.4697 61.1804 83.5606 60.8016 84.4659C60.4266 85.3712 59.8888 86.0625 59.188 86.5398C58.4873 87.017 57.6482 87.2557 56.671 87.2557ZM56.671 85.2159C57.3376 85.2159 57.8698 84.8807 58.2676 84.2102C58.6653 83.5398 58.8623 82.5341 58.8585 81.1932C58.8585 80.3106 58.7676 79.5758 58.5857 78.9886C58.4077 78.4015 58.1539 77.9602 57.8244 77.6648C57.4986 77.3693 57.1141 77.2216 56.671 77.2216C56.0081 77.2216 55.4778 77.553 55.0801 78.2159C54.6823 78.8788 54.4816 79.8712 54.4778 81.1932C54.4778 82.0871 54.5668 82.8333 54.7448 83.4318C54.9266 84.0265 55.1823 84.4735 55.5119 84.7727C55.8414 85.0682 56.2278 85.2159 56.671 85.2159ZM70.5303 87V85.2273L74.6724 81.392C75.0247 81.0511 75.3201 80.7443 75.5587 80.4716C75.8012 80.1989 75.9849 79.9318 76.1099 79.6705C76.2349 79.4053 76.2974 79.1193 76.2974 78.8125C76.2974 78.4716 76.2197 78.178 76.0644 77.9318C75.9091 77.6818 75.697 77.4905 75.4281 77.358C75.1591 77.2216 74.8542 77.1534 74.5133 77.1534C74.1572 77.1534 73.8466 77.2254 73.5815 77.3693C73.3163 77.5133 73.1118 77.7197 72.9678 77.9886C72.8239 78.2576 72.7519 78.5777 72.7519 78.9489H70.4167C70.4167 78.1875 70.5891 77.5265 70.9337 76.9659C71.2784 76.4053 71.7614 75.9716 72.3826 75.6648C73.0038 75.358 73.7197 75.2045 74.5303 75.2045C75.3637 75.2045 76.0891 75.3523 76.7065 75.6477C77.3277 75.9394 77.8106 76.3447 78.1553 76.8636C78.5 77.3826 78.6724 77.9773 78.6724 78.6477C78.6724 79.0871 78.5853 79.5208 78.411 79.9489C78.2406 80.3769 77.9356 80.8523 77.4962 81.375C77.0569 81.8939 76.4375 82.517 75.6383 83.2443L73.9394 84.9091V84.9886H78.8258V87H70.5303ZM84.9096 87.1591C84.0611 87.1591 83.3054 87.0133 82.6426 86.7216C81.9835 86.4261 81.4626 86.0208 81.0801 85.5057C80.7013 84.9867 80.5062 84.3883 80.4948 83.7102H82.9721C82.9873 83.9943 83.0801 84.2443 83.2505 84.4602C83.4248 84.6723 83.6558 84.8371 83.9437 84.9545C84.2316 85.072 84.5554 85.1307 84.9153 85.1307C85.2903 85.1307 85.6217 85.0644 85.9096 84.9318C86.1975 84.7992 86.4229 84.6155 86.5857 84.3807C86.7486 84.1458 86.8301 83.875 86.8301 83.5682C86.8301 83.2576 86.7429 82.983 86.5687 82.7443C86.3982 82.5019 86.152 82.3125 85.8301 82.1761C85.5119 82.0398 85.1331 81.9716 84.6937 81.9716H83.6085V80.1648H84.6937C85.0649 80.1648 85.3926 80.1004 85.6766 79.9716C85.9645 79.8428 86.188 79.6648 86.3471 79.4375C86.5062 79.2064 86.5857 78.9375 86.5857 78.6307C86.5857 78.339 86.5157 78.0833 86.3755 77.8636C86.2391 77.6402 86.046 77.4659 85.796 77.3409C85.5498 77.2159 85.2619 77.1534 84.9323 77.1534C84.599 77.1534 84.2941 77.214 84.0176 77.3352C83.741 77.4527 83.5194 77.6212 83.3528 77.8409C83.1861 78.0606 83.0971 78.3182 83.0857 78.6136H80.7278C80.7391 77.9432 80.9304 77.3523 81.3016 76.8409C81.6729 76.3295 82.1729 75.9299 82.8016 75.642C83.4342 75.3504 84.1482 75.2045 84.9437 75.2045C85.7467 75.2045 86.4494 75.3504 87.0516 75.642C87.6539 75.9337 88.1217 76.3277 88.4551 76.8239C88.7922 77.3163 88.9588 77.8693 88.9551 78.483C88.9588 79.1345 88.7562 79.678 88.3471 80.1136C87.9418 80.5492 87.4134 80.8258 86.7619 80.9432V81.0341C87.6179 81.1439 88.2695 81.4413 88.7164 81.9261C89.1672 82.4072 89.3907 83.0095 89.3869 83.733C89.3907 84.3958 89.1994 84.9848 88.813 85.5C88.4304 86.0152 87.902 86.4205 87.2278 86.7159C86.5535 87.0114 85.7808 87.1591 84.9096 87.1591ZM95.6212 87.1591C95.0228 87.1553 94.4451 87.0549 93.8883 86.858C93.3353 86.661 92.8391 86.3409 92.3997 85.8977C91.9603 85.4545 91.6118 84.8674 91.3542 84.1364C91.1004 83.4053 90.9735 82.5076 90.9735 81.4432C90.9773 80.4659 91.0891 79.5928 91.3087 78.8239C91.5322 78.0511 91.8504 77.3958 92.2633 76.858C92.68 76.3201 93.1781 75.911 93.7576 75.6307C94.3372 75.3466 94.9868 75.2045 95.7065 75.2045C96.483 75.2045 97.1686 75.3561 97.7633 75.6591C98.358 75.9583 98.8353 76.3655 99.1951 76.8807C99.5587 77.3958 99.7784 77.9735 99.8542 78.6136H97.4281C97.3334 78.2083 97.1345 77.8902 96.8315 77.6591C96.5284 77.428 96.1534 77.3125 95.7065 77.3125C94.9489 77.3125 94.3731 77.642 93.9792 78.3011C93.5891 78.9602 93.3902 79.8561 93.3826 80.9886H93.4622C93.6364 80.6439 93.8712 80.3504 94.1667 80.108C94.4659 79.8617 94.805 79.6742 95.1837 79.5455C95.5663 79.4129 95.9697 79.3466 96.394 79.3466C97.0834 79.3466 97.697 79.5095 98.2349 79.8352C98.7728 80.1572 99.197 80.6004 99.5076 81.1648C99.8182 81.7292 99.9735 82.375 99.9735 83.1023C99.9735 83.8902 99.7898 84.5909 99.4224 85.2045C99.0587 85.8182 98.5493 86.2992 97.894 86.6477C97.2425 86.9924 96.4849 87.1629 95.6212 87.1591ZM95.6099 85.2273C95.9887 85.2273 96.3277 85.1364 96.6269 84.9545C96.9262 84.7727 97.161 84.5265 97.3315 84.2159C97.5019 83.9053 97.5872 83.5568 97.5872 83.1705C97.5872 82.7841 97.5019 82.4375 97.3315 82.1307C97.1648 81.8239 96.9337 81.5795 96.6383 81.3977C96.3428 81.2159 96.0057 81.125 95.6269 81.125C95.3428 81.125 95.0796 81.178 94.8372 81.2841C94.5985 81.3902 94.3883 81.5379 94.2065 81.7273C94.0284 81.9167 93.8883 82.1364 93.786 82.3864C93.6837 82.6326 93.6326 82.8958 93.6326 83.1761C93.6326 83.5511 93.7178 83.8939 93.8883 84.2045C94.0625 84.5152 94.2974 84.7633 94.5928 84.9489C94.8921 85.1345 95.2311 85.2273 95.6099 85.2273ZM106.019 87.1591C105.17 87.1591 104.415 87.0133 103.752 86.7216C103.093 86.4261 102.572 86.0208 102.189 85.5057C101.811 84.9867 101.616 84.3883 101.604 83.7102H104.081C104.097 83.9943 104.189 84.2443 104.36 84.4602C104.534 84.6723 104.765 84.8371 105.053 84.9545C105.341 85.072 105.665 85.1307 106.025 85.1307C106.4 85.1307 106.731 85.0644 107.019 84.9318C107.307 84.7992 107.532 84.6155 107.695 84.3807C107.858 84.1458 107.939 83.875 107.939 83.5682C107.939 83.2576 107.852 82.983 107.678 82.7443C107.508 82.5019 107.261 82.3125 106.939 82.1761C106.621 82.0398 106.242 81.9716 105.803 81.9716H104.718V80.1648H105.803C106.174 80.1648 106.502 80.1004 106.786 79.9716C107.074 79.8428 107.297 79.6648 107.456 79.4375C107.616 79.2064 107.695 78.9375 107.695 78.6307C107.695 78.339 107.625 78.0833 107.485 77.8636C107.349 77.6402 107.155 77.4659 106.905 77.3409C106.659 77.2159 106.371 77.1534 106.042 77.1534C105.708 77.1534 105.403 77.214 105.127 77.3352C104.85 77.4527 104.629 77.6212 104.462 77.8409C104.295 78.0606 104.206 78.3182 104.195 78.6136H101.837C101.849 77.9432 102.04 77.3523 102.411 76.8409C102.782 76.3295 103.282 75.9299 103.911 75.642C104.544 75.3504 105.258 75.2045 106.053 75.2045C106.856 75.2045 107.559 75.3504 108.161 75.642C108.763 75.9337 109.231 76.3277 109.564 76.8239C109.902 77.3163 110.068 77.8693 110.064 78.483C110.068 79.1345 109.866 79.678 109.456 80.1136C109.051 80.5492 108.523 80.8258 107.871 80.9432V81.0341C108.727 81.1439 109.379 81.4413 109.826 81.9261C110.277 82.4072 110.5 83.0095 110.496 83.733C110.5 84.3958 110.309 84.9848 109.922 85.5C109.54 86.0152 109.011 86.4205 108.337 86.7159C107.663 87.0114 106.89 87.1591 106.019 87.1591ZM124.012 87.1591C123.137 87.1591 122.358 87.017 121.677 86.733C120.999 86.4451 120.466 86.053 120.08 85.5568C119.694 85.0606 119.501 84.4981 119.501 83.8693C119.501 83.3845 119.61 82.9394 119.83 82.5341C120.054 82.125 120.357 81.786 120.739 81.517C121.122 81.2443 121.55 81.0701 122.023 80.9943V80.9148C121.402 80.7898 120.898 80.4886 120.512 80.0114C120.126 79.5303 119.932 78.9716 119.932 78.3352C119.932 77.733 120.108 77.197 120.461 76.7273C120.813 76.2538 121.296 75.8826 121.91 75.6136C122.527 75.3409 123.228 75.2045 124.012 75.2045C124.796 75.2045 125.495 75.3409 126.108 75.6136C126.726 75.8864 127.211 76.2595 127.563 76.733C127.915 77.2027 128.093 77.7367 128.097 78.3352C128.093 78.9754 127.896 79.5341 127.506 80.0114C127.116 80.4886 126.616 80.7898 126.006 80.9148V80.9943C126.472 81.0701 126.894 81.2443 127.273 81.517C127.656 81.786 127.959 82.125 128.182 82.5341C128.41 82.9394 128.525 83.3845 128.529 83.8693C128.525 84.4981 128.33 85.0606 127.944 85.5568C127.557 86.053 127.023 86.4451 126.341 86.733C125.663 87.017 124.887 87.1591 124.012 87.1591ZM124.012 85.3523C124.402 85.3523 124.743 85.2822 125.035 85.142C125.326 84.9981 125.554 84.8011 125.716 84.5511C125.883 84.2973 125.966 84.0057 125.966 83.6761C125.966 83.339 125.881 83.0417 125.711 82.7841C125.54 82.5227 125.309 82.3182 125.018 82.1705C124.726 82.0189 124.391 81.9432 124.012 81.9432C123.637 81.9432 123.302 82.0189 123.006 82.1705C122.711 82.3182 122.478 82.5227 122.307 82.7841C122.141 83.0417 122.057 83.339 122.057 83.6761C122.057 84.0057 122.139 84.2973 122.302 84.5511C122.465 84.8011 122.694 84.9981 122.989 85.142C123.285 85.2822 123.626 85.3523 124.012 85.3523ZM124.012 80.1534C124.338 80.1534 124.627 80.0871 124.881 79.9545C125.135 79.822 125.334 79.6383 125.478 79.4034C125.622 79.1686 125.694 78.8977 125.694 78.5909C125.694 78.2879 125.622 78.0227 125.478 77.7955C125.334 77.5644 125.137 77.3845 124.887 77.2557C124.637 77.1231 124.345 77.0568 124.012 77.0568C123.682 77.0568 123.391 77.1231 123.137 77.2557C122.883 77.3845 122.684 77.5644 122.54 77.7955C122.4 78.0227 122.33 78.2879 122.33 78.5909C122.33 78.8977 122.402 79.1686 122.546 79.4034C122.69 79.6383 122.889 79.822 123.143 79.9545C123.396 80.0871 123.686 80.1534 124.012 80.1534ZM134.55 87.1591C133.702 87.1591 132.946 87.0133 132.283 86.7216C131.624 86.4261 131.103 86.0208 130.721 85.5057C130.342 84.9867 130.147 84.3883 130.135 83.7102H132.613C132.628 83.9943 132.721 84.2443 132.891 84.4602C133.065 84.6723 133.296 84.8371 133.584 84.9545C133.872 85.072 134.196 85.1307 134.556 85.1307C134.931 85.1307 135.262 85.0644 135.55 84.9318C135.838 84.7992 136.063 84.6155 136.226 84.3807C136.389 84.1458 136.471 83.875 136.471 83.5682C136.471 83.2576 136.384 82.983 136.209 82.7443C136.039 82.5019 135.793 82.3125 135.471 82.1761C135.152 82.0398 134.774 81.9716 134.334 81.9716H133.249V80.1648H134.334C134.706 80.1648 135.033 80.1004 135.317 79.9716C135.605 79.8428 135.829 79.6648 135.988 79.4375C136.147 79.2064 136.226 78.9375 136.226 78.6307C136.226 78.339 136.156 78.0833 136.016 77.8636C135.88 77.6402 135.687 77.4659 135.437 77.3409C135.19 77.2159 134.902 77.1534 134.573 77.1534C134.24 77.1534 133.935 77.214 133.658 77.3352C133.382 77.4527 133.16 77.6212 132.993 77.8409C132.827 78.0606 132.738 78.3182 132.726 78.6136H130.368C130.38 77.9432 130.571 77.3523 130.942 76.8409C131.313 76.3295 131.813 75.9299 132.442 75.642C133.075 75.3504 133.789 75.2045 134.584 75.2045C135.387 75.2045 136.09 75.3504 136.692 75.642C137.295 75.9337 137.762 76.3277 138.096 76.8239C138.433 77.3163 138.599 77.8693 138.596 78.483C138.599 79.1345 138.397 79.678 137.988 80.1136C137.582 80.5492 137.054 80.8258 136.402 80.9432V81.0341C137.259 81.1439 137.91 81.4413 138.357 81.9261C138.808 82.4072 139.031 83.0095 139.027 83.733C139.031 84.3958 138.84 84.9848 138.454 85.5C138.071 86.0152 137.543 86.4205 136.868 86.7159C136.194 87.0114 135.421 87.1591 134.55 87.1591ZM145.262 87.1591C144.663 87.1553 144.086 87.0549 143.529 86.858C142.976 86.661 142.48 86.3409 142.04 85.8977C141.601 85.4545 141.252 84.8674 140.995 84.1364C140.741 83.4053 140.614 82.5076 140.614 81.4432C140.618 80.4659 140.73 79.5928 140.949 78.8239C141.173 78.0511 141.491 77.3958 141.904 76.858C142.321 76.3201 142.819 75.911 143.398 75.6307C143.978 75.3466 144.627 75.2045 145.347 75.2045C146.124 75.2045 146.809 75.3561 147.404 75.6591C147.999 75.9583 148.476 76.3655 148.836 76.8807C149.199 77.3958 149.419 77.9735 149.495 78.6136H147.069C146.974 78.2083 146.775 77.8902 146.472 77.6591C146.169 77.428 145.794 77.3125 145.347 77.3125C144.59 77.3125 144.014 77.642 143.62 78.3011C143.23 78.9602 143.031 79.8561 143.023 80.9886H143.103C143.277 80.6439 143.512 80.3504 143.807 80.108C144.107 79.8617 144.446 79.6742 144.824 79.5455C145.207 79.4129 145.61 79.3466 146.035 79.3466C146.724 79.3466 147.338 79.5095 147.876 79.8352C148.413 80.1572 148.838 80.6004 149.148 81.1648C149.459 81.7292 149.614 82.375 149.614 83.1023C149.614 83.8902 149.43 84.5909 149.063 85.2045C148.699 85.8182 148.19 86.2992 147.535 86.6477C146.883 86.9924 146.126 87.1629 145.262 87.1591ZM145.251 85.2273C145.629 85.2273 145.968 85.1364 146.268 84.9545C146.567 84.7727 146.802 84.5265 146.972 84.2159C147.143 83.9053 147.228 83.5568 147.228 83.1705C147.228 82.7841 147.143 82.4375 146.972 82.1307C146.805 81.8239 146.574 81.5795 146.279 81.3977C145.983 81.2159 145.646 81.125 145.268 81.125C144.983 81.125 144.72 81.178 144.478 81.2841C144.239 81.3902 144.029 81.5379 143.847 81.7273C143.669 81.9167 143.529 82.1364 143.427 82.3864C143.324 82.6326 143.273 82.8958 143.273 83.1761C143.273 83.5511 143.358 83.8939 143.529 84.2045C143.703 84.5152 143.938 84.7633 144.233 84.9489C144.533 85.1345 144.872 85.2273 145.251 85.2273ZM151.182 84.9545V83.017L156.04 75.3636H157.711V78.0455H156.722L153.66 82.892V82.983H160.563V84.9545H151.182ZM156.768 87V84.3636L156.813 83.5057V75.3636H159.12V87H156.768ZM173.949 87.1591C173.074 87.1591 172.296 87.017 171.614 86.733C170.936 86.4451 170.404 86.053 170.018 85.5568C169.631 85.0606 169.438 84.4981 169.438 83.8693C169.438 83.3845 169.548 82.9394 169.768 82.5341C169.991 82.125 170.294 81.786 170.677 81.517C171.059 81.2443 171.487 81.0701 171.961 80.9943V80.9148C171.34 80.7898 170.836 80.4886 170.449 80.0114C170.063 79.5303 169.87 78.9716 169.87 78.3352C169.87 77.733 170.046 77.197 170.398 76.7273C170.751 76.2538 171.233 75.8826 171.847 75.6136C172.465 75.3409 173.165 75.2045 173.949 75.2045C174.733 75.2045 175.432 75.3409 176.046 75.6136C176.663 75.8864 177.148 76.2595 177.501 76.733C177.853 77.2027 178.031 77.7367 178.035 78.3352C178.031 78.9754 177.834 79.5341 177.444 80.0114C177.054 80.4886 176.554 80.7898 175.944 80.9148V80.9943C176.41 81.0701 176.832 81.2443 177.211 81.517C177.593 81.786 177.896 82.125 178.12 82.5341C178.347 82.9394 178.463 83.3845 178.466 83.8693C178.463 84.4981 178.268 85.0606 177.881 85.5568C177.495 86.053 176.961 86.4451 176.279 86.733C175.601 87.017 174.824 87.1591 173.949 87.1591ZM173.949 85.3523C174.34 85.3523 174.68 85.2822 174.972 85.142C175.264 84.9981 175.491 84.8011 175.654 84.5511C175.821 84.2973 175.904 84.0057 175.904 83.6761C175.904 83.339 175.819 83.0417 175.648 82.7841C175.478 82.5227 175.247 82.3182 174.955 82.1705C174.663 82.0189 174.328 81.9432 173.949 81.9432C173.574 81.9432 173.239 82.0189 172.944 82.1705C172.648 82.3182 172.415 82.5227 172.245 82.7841C172.078 83.0417 171.995 83.339 171.995 83.6761C171.995 84.0057 172.076 84.2973 172.239 84.5511C172.402 84.8011 172.631 84.9981 172.927 85.142C173.222 85.2822 173.563 85.3523 173.949 85.3523ZM173.949 80.1534C174.275 80.1534 174.565 80.0871 174.819 79.9545C175.072 79.822 175.271 79.6383 175.415 79.4034C175.559 79.1686 175.631 78.8977 175.631 78.5909C175.631 78.2879 175.559 78.0227 175.415 77.7955C175.271 77.5644 175.074 77.3845 174.824 77.2557C174.574 77.1231 174.283 77.0568 173.949 77.0568C173.62 77.0568 173.328 77.1231 173.074 77.2557C172.821 77.3845 172.622 77.5644 172.478 77.7955C172.338 78.0227 172.268 78.2879 172.268 78.5909C172.268 78.8977 172.34 79.1686 172.483 79.4034C172.627 79.6383 172.826 79.822 173.08 79.9545C173.334 80.0871 173.624 80.1534 173.949 80.1534ZM180.187 87V85.2273L184.329 81.392C184.681 81.0511 184.976 80.7443 185.215 80.4716C185.457 80.1989 185.641 79.9318 185.766 79.6705C185.891 79.4053 185.954 79.1193 185.954 78.8125C185.954 78.4716 185.876 78.178 185.721 77.9318C185.565 77.6818 185.353 77.4905 185.084 77.358C184.815 77.2216 184.51 77.1534 184.17 77.1534C183.813 77.1534 183.503 77.2254 183.238 77.3693C182.973 77.5133 182.768 77.7197 182.624 77.9886C182.48 78.2576 182.408 78.5777 182.408 78.9489H180.073C180.073 78.1875 180.245 77.5265 180.59 76.9659C180.935 76.4053 181.418 75.9716 182.039 75.6648C182.66 75.358 183.376 75.2045 184.187 75.2045C185.02 75.2045 185.745 75.3523 186.363 75.6477C186.984 75.9394 187.467 76.3447 187.812 76.8636C188.156 77.3826 188.329 77.9773 188.329 78.6477C188.329 79.0871 188.242 79.5208 188.067 79.9489C187.897 80.3769 187.592 80.8523 187.152 81.375C186.713 81.8939 186.094 82.517 185.295 83.2443L183.596 84.9091V84.9886H188.482V87H180.187ZM194.731 87.1591C194.132 87.1553 193.554 87.0549 192.998 86.858C192.445 86.661 191.948 86.3409 191.509 85.8977C191.07 85.4545 190.721 84.8674 190.464 84.1364C190.21 83.4053 190.083 82.5076 190.083 81.4432C190.087 80.4659 190.198 79.5928 190.418 78.8239C190.642 78.0511 190.96 77.3958 191.373 76.858C191.789 76.3201 192.287 75.911 192.867 75.6307C193.447 75.3466 194.096 75.2045 194.816 75.2045C195.592 75.2045 196.278 75.3561 196.873 75.6591C197.467 75.9583 197.945 76.3655 198.304 76.8807C198.668 77.3958 198.888 77.9735 198.964 78.6136H196.537C196.443 78.2083 196.244 77.8902 195.941 77.6591C195.638 77.428 195.263 77.3125 194.816 77.3125C194.058 77.3125 193.483 77.642 193.089 78.3011C192.698 78.9602 192.5 79.8561 192.492 80.9886H192.572C192.746 80.6439 192.981 80.3504 193.276 80.108C193.575 79.8617 193.914 79.6742 194.293 79.5455C194.676 79.4129 195.079 79.3466 195.503 79.3466C196.193 79.3466 196.806 79.5095 197.344 79.8352C197.882 80.1572 198.306 80.6004 198.617 81.1648C198.928 81.7292 199.083 82.375 199.083 83.1023C199.083 83.8902 198.899 84.5909 198.532 85.2045C198.168 85.8182 197.659 86.2992 197.003 86.6477C196.352 86.9924 195.594 87.1629 194.731 87.1591ZM194.719 85.2273C195.098 85.2273 195.437 85.1364 195.736 84.9545C196.036 84.7727 196.27 84.5265 196.441 84.2159C196.611 83.9053 196.697 83.5568 196.697 83.1705C196.697 82.7841 196.611 82.4375 196.441 82.1307C196.274 81.8239 196.043 81.5795 195.748 81.3977C195.452 81.2159 195.115 81.125 194.736 81.125C194.452 81.125 194.189 81.178 193.947 81.2841C193.708 81.3902 193.498 81.5379 193.316 81.7273C193.138 81.9167 192.998 82.1364 192.895 82.3864C192.793 82.6326 192.742 82.8958 192.742 83.1761C192.742 83.5511 192.827 83.8939 192.998 84.2045C193.172 84.5152 193.407 84.7633 193.702 84.9489C194.001 85.1345 194.34 85.2273 194.719 85.2273ZM205.037 75.2045C205.636 75.2045 206.212 75.3049 206.765 75.5057C207.322 75.7064 207.818 76.0265 208.253 76.4659C208.693 76.9053 209.039 77.4886 209.293 78.2159C209.551 78.9394 209.681 79.8277 209.685 80.8807C209.685 81.8693 209.573 82.7519 209.35 83.5284C209.13 84.3011 208.814 84.9583 208.401 85.5C207.988 86.0417 207.49 86.4545 206.907 86.7386C206.323 87.0189 205.672 87.1591 204.952 87.1591C204.176 87.1591 203.49 87.0095 202.895 86.7102C202.301 86.4072 201.822 85.9962 201.458 85.4773C201.098 84.9545 200.88 84.3674 200.804 83.7159H203.231C203.325 84.1402 203.524 84.4697 203.827 84.7045C204.13 84.9356 204.505 85.0511 204.952 85.0511C205.71 85.0511 206.286 84.7216 206.679 84.0625C207.073 83.3996 207.272 82.4924 207.276 81.3409H207.197C207.022 81.6818 206.787 81.9754 206.492 82.2216C206.197 82.464 205.858 82.6515 205.475 82.7841C205.096 82.9167 204.693 82.983 204.265 82.983C203.579 82.983 202.967 82.822 202.429 82.5C201.892 82.178 201.467 81.7348 201.157 81.1705C200.846 80.6061 200.691 79.9621 200.691 79.2386C200.687 78.4583 200.867 77.7633 201.231 77.1534C201.594 76.5436 202.102 76.0663 202.753 75.7216C203.409 75.3731 204.17 75.2008 205.037 75.2045ZM205.054 77.1364C204.672 77.1364 204.331 77.2273 204.032 77.4091C203.736 77.5909 203.501 77.8352 203.327 78.142C203.157 78.4489 203.073 78.7917 203.077 79.1705C203.077 79.553 203.161 79.8977 203.327 80.2045C203.498 80.5076 203.729 80.75 204.02 80.9318C204.316 81.1098 204.653 81.1989 205.032 81.1989C205.316 81.1989 205.579 81.1458 205.822 81.0398C206.064 80.9337 206.274 80.7879 206.452 80.6023C206.634 80.4129 206.776 80.1951 206.878 79.9489C206.981 79.7027 207.032 79.4413 207.032 79.1648C207.028 78.7973 206.941 78.4602 206.77 78.1534C206.6 77.8466 206.365 77.6004 206.066 77.4148C205.767 77.2292 205.429 77.1364 205.054 77.1364Z" fill="white"/>
<path d="M68.0748 132.159C67.2717 132.159 66.5558 132.011 65.927 131.716C65.302 131.42 64.8058 131.013 64.4384 130.494C64.071 129.975 63.8797 129.381 63.8645 128.71H66.2509C66.2774 129.161 66.4668 129.527 66.8191 129.807C67.1714 130.087 67.5899 130.227 68.0748 130.227C68.4611 130.227 68.802 130.142 69.0975 129.972C69.3967 129.797 69.6297 129.557 69.7964 129.25C69.9668 128.939 70.052 128.583 70.052 128.182C70.052 127.773 69.9649 127.413 69.7907 127.102C69.6202 126.792 69.3835 126.549 69.0805 126.375C68.7774 126.201 68.4308 126.112 68.0407 126.108C67.6998 126.108 67.3683 126.178 67.0464 126.318C66.7282 126.458 66.4801 126.65 66.302 126.892L64.1145 126.5L64.6657 120.364H71.7793V122.375H66.6941L66.393 125.29H66.4611C66.6657 125.002 66.9744 124.763 67.3873 124.574C67.8002 124.384 68.2623 124.29 68.7736 124.29C69.4744 124.29 70.0994 124.455 70.6486 124.784C71.1979 125.114 71.6316 125.566 71.9498 126.142C72.268 126.714 72.4252 127.373 72.4214 128.119C72.4252 128.903 72.2433 129.6 71.8759 130.21C71.5123 130.816 71.0028 131.294 70.3475 131.642C69.696 131.987 68.9384 132.159 68.0748 132.159ZM79.2282 119.818L75.4782 133.75H73.393L77.143 119.818H79.2282ZM80.3716 132V130.227L84.5137 126.392C84.866 126.051 85.1614 125.744 85.4001 125.472C85.6425 125.199 85.8262 124.932 85.9512 124.67C86.0762 124.405 86.1387 124.119 86.1387 123.812C86.1387 123.472 86.061 123.178 85.9057 122.932C85.7504 122.682 85.5383 122.491 85.2694 122.358C85.0004 122.222 84.6955 122.153 84.3546 122.153C83.9985 122.153 83.6879 122.225 83.4228 122.369C83.1576 122.513 82.9531 122.72 82.8091 122.989C82.6652 123.258 82.5932 123.578 82.5932 123.949H80.258C80.258 123.187 80.4304 122.527 80.7751 121.966C81.1198 121.405 81.6027 120.972 82.2239 120.665C82.8451 120.358 83.561 120.205 84.3716 120.205C85.205 120.205 85.9304 120.352 86.5478 120.648C87.169 120.939 87.652 121.345 87.9966 121.864C88.3413 122.383 88.5137 122.977 88.5137 123.648C88.5137 124.087 88.4266 124.521 88.2523 124.949C88.0819 125.377 87.777 125.852 87.3376 126.375C86.8982 126.894 86.2788 127.517 85.4796 128.244L83.7807 129.909V129.989H88.6671V132H80.3716ZM94.7509 132.159C93.9024 132.159 93.1467 132.013 92.4839 131.722C91.8248 131.426 91.3039 131.021 90.9214 130.506C90.5426 129.987 90.3475 129.388 90.3361 128.71H92.8134C92.8286 128.994 92.9214 129.244 93.0918 129.46C93.2661 129.672 93.4971 129.837 93.785 129.955C94.0729 130.072 94.3967 130.131 94.7566 130.131C95.1316 130.131 95.463 130.064 95.7509 129.932C96.0388 129.799 96.2642 129.616 96.427 129.381C96.5899 129.146 96.6714 128.875 96.6714 128.568C96.6714 128.258 96.5842 127.983 96.41 127.744C96.2395 127.502 95.9933 127.312 95.6714 127.176C95.3532 127.04 94.9744 126.972 94.535 126.972H93.4498V125.165H94.535C94.9062 125.165 95.2339 125.1 95.518 124.972C95.8058 124.843 96.0293 124.665 96.1884 124.438C96.3475 124.206 96.427 123.938 96.427 123.631C96.427 123.339 96.357 123.083 96.2168 122.864C96.0805 122.64 95.8873 122.466 95.6373 122.341C95.3911 122.216 95.1032 122.153 94.7736 122.153C94.4403 122.153 94.1354 122.214 93.8589 122.335C93.5823 122.453 93.3608 122.621 93.1941 122.841C93.0274 123.061 92.9384 123.318 92.927 123.614H90.5691C90.5805 122.943 90.7717 122.352 91.143 121.841C91.5142 121.33 92.0142 120.93 92.643 120.642C93.2755 120.35 93.9895 120.205 94.785 120.205C95.588 120.205 96.2907 120.35 96.893 120.642C97.4952 120.934 97.963 121.328 98.2964 121.824C98.6335 122.316 98.8002 122.869 98.7964 123.483C98.8002 124.134 98.5975 124.678 98.1884 125.114C97.7831 125.549 97.2547 125.826 96.6032 125.943V126.034C97.4592 126.144 98.1108 126.441 98.5577 126.926C99.0085 127.407 99.232 128.009 99.2282 128.733C99.232 129.396 99.0407 129.985 98.6543 130.5C98.2717 131.015 97.7433 131.42 97.0691 131.716C96.3948 132.011 95.6221 132.159 94.7509 132.159Z" fill="white"/>
<path d="M182.33 128.159C181.732 128.155 181.154 128.055 180.597 127.858C180.044 127.661 179.548 127.341 179.109 126.898C178.669 126.455 178.321 125.867 178.063 125.136C177.809 124.405 177.682 123.508 177.682 122.443C177.686 121.466 177.798 120.593 178.018 119.824C178.241 119.051 178.559 118.396 178.972 117.858C179.389 117.32 179.887 116.911 180.466 116.631C181.046 116.347 181.696 116.205 182.415 116.205C183.192 116.205 183.877 116.356 184.472 116.659C185.067 116.958 185.544 117.366 185.904 117.881C186.268 118.396 186.487 118.973 186.563 119.614H184.137C184.042 119.208 183.843 118.89 183.54 118.659C183.237 118.428 182.862 118.312 182.415 118.312C181.658 118.312 181.082 118.642 180.688 119.301C180.298 119.96 180.099 120.856 180.091 121.989H180.171C180.345 121.644 180.58 121.35 180.876 121.108C181.175 120.862 181.514 120.674 181.893 120.545C182.275 120.413 182.679 120.347 183.103 120.347C183.792 120.347 184.406 120.509 184.944 120.835C185.482 121.157 185.906 121.6 186.216 122.165C186.527 122.729 186.682 123.375 186.682 124.102C186.682 124.89 186.499 125.591 186.131 126.205C185.768 126.818 185.258 127.299 184.603 127.648C183.951 127.992 183.194 128.163 182.33 128.159ZM182.319 126.227C182.698 126.227 183.037 126.136 183.336 125.955C183.635 125.773 183.87 125.527 184.04 125.216C184.211 124.905 184.296 124.557 184.296 124.17C184.296 123.784 184.211 123.437 184.04 123.131C183.874 122.824 183.643 122.58 183.347 122.398C183.052 122.216 182.715 122.125 182.336 122.125C182.052 122.125 181.788 122.178 181.546 122.284C181.307 122.39 181.097 122.538 180.915 122.727C180.737 122.917 180.597 123.136 180.495 123.386C180.393 123.633 180.341 123.896 180.341 124.176C180.341 124.551 180.427 124.894 180.597 125.205C180.771 125.515 181.006 125.763 181.302 125.949C181.601 126.134 181.94 126.227 182.319 126.227ZM192.728 128.159C191.879 128.159 191.124 128.013 190.461 127.722C189.802 127.426 189.281 127.021 188.898 126.506C188.52 125.987 188.324 125.388 188.313 124.71H190.79C190.805 124.994 190.898 125.244 191.069 125.46C191.243 125.672 191.474 125.837 191.762 125.955C192.05 126.072 192.374 126.131 192.734 126.131C193.109 126.131 193.44 126.064 193.728 125.932C194.016 125.799 194.241 125.616 194.404 125.381C194.567 125.146 194.648 124.875 194.648 124.568C194.648 124.258 194.561 123.983 194.387 123.744C194.216 123.502 193.97 123.312 193.648 123.176C193.33 123.04 192.951 122.972 192.512 122.972H191.427V121.165H192.512C192.883 121.165 193.211 121.1 193.495 120.972C193.783 120.843 194.006 120.665 194.165 120.438C194.324 120.206 194.404 119.938 194.404 119.631C194.404 119.339 194.334 119.083 194.194 118.864C194.057 118.64 193.864 118.466 193.614 118.341C193.368 118.216 193.08 118.153 192.751 118.153C192.417 118.153 192.112 118.214 191.836 118.335C191.559 118.453 191.338 118.621 191.171 118.841C191.004 119.061 190.915 119.318 190.904 119.614H188.546C188.557 118.943 188.749 118.352 189.12 117.841C189.491 117.33 189.991 116.93 190.62 116.642C191.252 116.35 191.966 116.205 192.762 116.205C193.565 116.205 194.268 116.35 194.87 116.642C195.472 116.934 195.94 117.328 196.273 117.824C196.61 118.316 196.777 118.869 196.773 119.483C196.777 120.134 196.574 120.678 196.165 121.114C195.76 121.549 195.232 121.826 194.58 121.943V122.034C195.436 122.144 196.088 122.441 196.535 122.926C196.985 123.407 197.209 124.009 197.205 124.733C197.209 125.396 197.018 125.985 196.631 126.5C196.249 127.015 195.72 127.42 195.046 127.716C194.372 128.011 193.599 128.159 192.728 128.159ZM203.275 128.159C202.426 128.159 201.671 128.013 201.008 127.722C200.349 127.426 199.828 127.021 199.445 126.506C199.066 125.987 198.871 125.388 198.86 124.71H201.337C201.352 124.994 201.445 125.244 201.616 125.46C201.79 125.672 202.021 125.837 202.309 125.955C202.597 126.072 202.921 126.131 203.28 126.131C203.655 126.131 203.987 126.064 204.275 125.932C204.563 125.799 204.788 125.616 204.951 125.381C205.114 125.146 205.195 124.875 205.195 124.568C205.195 124.258 205.108 123.983 204.934 123.744C204.763 123.502 204.517 123.312 204.195 123.176C203.877 123.04 203.498 122.972 203.059 122.972H201.974V121.165H203.059C203.43 121.165 203.758 121.1 204.042 120.972C204.33 120.843 204.553 120.665 204.712 120.438C204.871 120.206 204.951 119.938 204.951 119.631C204.951 119.339 204.881 119.083 204.741 118.864C204.604 118.64 204.411 118.466 204.161 118.341C203.915 118.216 203.627 118.153 203.297 118.153C202.964 118.153 202.659 118.214 202.383 118.335C202.106 118.453 201.885 118.621 201.718 118.841C201.551 119.061 201.462 119.318 201.451 119.614H199.093C199.104 118.943 199.296 118.352 199.667 117.841C200.038 117.33 200.538 116.93 201.167 116.642C201.799 116.35 202.513 116.205 203.309 116.205C204.112 116.205 204.814 116.35 205.417 116.642C206.019 116.934 206.487 117.328 206.82 117.824C207.157 118.316 207.324 118.869 207.32 119.483C207.324 120.134 207.121 120.678 206.712 121.114C206.307 121.549 205.779 121.826 205.127 121.943V122.034C205.983 122.144 206.635 122.441 207.082 122.926C207.532 123.407 207.756 124.009 207.752 124.733C207.756 125.396 207.564 125.985 207.178 126.5C206.796 127.015 206.267 127.42 205.593 127.716C204.919 128.011 204.146 128.159 203.275 128.159Z" fill="white"/>
<path d="M257.278 26.4375H254.79C254.744 26.1155 254.652 25.8295 254.511 25.5795C254.371 25.3258 254.191 25.1098 253.972 24.9318C253.752 24.7538 253.498 24.6174 253.21 24.5227C252.926 24.428 252.617 24.3807 252.284 24.3807C251.682 24.3807 251.157 24.5303 250.71 24.8295C250.263 25.125 249.917 25.5568 249.67 26.125C249.424 26.6894 249.301 27.375 249.301 28.1818C249.301 29.0114 249.424 29.7083 249.67 30.2727C249.92 30.8371 250.269 31.2633 250.716 31.5511C251.163 31.839 251.68 31.983 252.267 31.983C252.597 31.983 252.902 31.9394 253.182 31.8523C253.466 31.7652 253.718 31.6383 253.938 31.4716C254.157 31.3011 254.339 31.0947 254.483 30.8523C254.631 30.6098 254.733 30.3333 254.79 30.0227L257.278 30.0341C257.214 30.5682 257.053 31.0833 256.795 31.5795C256.542 32.072 256.199 32.5133 255.767 32.9034C255.339 33.2898 254.828 33.5966 254.233 33.8239C253.642 34.0473 252.973 34.1591 252.227 34.1591C251.189 34.1591 250.261 33.9242 249.443 33.4545C248.629 32.9848 247.985 32.3049 247.511 31.4148C247.042 30.5246 246.807 29.447 246.807 28.1818C246.807 26.9129 247.045 25.8333 247.523 24.9432C248 24.053 248.648 23.375 249.466 22.9091C250.284 22.4394 251.205 22.2045 252.227 22.2045C252.902 22.2045 253.527 22.2992 254.102 22.4886C254.682 22.678 255.195 22.9545 255.642 23.3182C256.089 23.678 256.453 24.1193 256.733 24.642C257.017 25.1648 257.199 25.7633 257.278 26.4375ZM259.043 34V22.3636H263.634C264.512 22.3636 265.262 22.5208 265.884 22.8352C266.509 23.1458 266.984 23.5871 267.31 24.1591C267.639 24.7273 267.804 25.3958 267.804 26.1648C267.804 26.9375 267.637 27.6023 267.304 28.1591C266.971 28.7121 266.488 29.1364 265.855 29.4318C265.226 29.7273 264.465 29.875 263.571 29.875H260.497V27.8977H263.173C263.643 27.8977 264.033 27.8333 264.344 27.7045C264.654 27.5758 264.885 27.3826 265.037 27.125C265.192 26.8674 265.27 26.5473 265.27 26.1648C265.27 25.7784 265.192 25.4527 265.037 25.1875C264.885 24.9223 264.652 24.7216 264.338 24.5852C264.027 24.4451 263.635 24.375 263.162 24.375H261.503V34H259.043ZM265.327 28.7045L268.219 34H265.503L262.673 28.7045H265.327ZM269.543 34V22.3636H277.384V24.392H272.003V27.1648H276.98V29.1932H272.003V31.9716H277.406V34H269.543ZM283.464 34H279.339V22.3636H283.499C284.669 22.3636 285.677 22.5966 286.521 23.0625C287.366 23.5246 288.016 24.1894 288.47 25.0568C288.929 25.9242 289.158 26.9621 289.158 28.1705C289.158 29.3826 288.929 30.4242 288.47 31.2955C288.016 32.1667 287.362 32.8352 286.51 33.3011C285.661 33.767 284.646 34 283.464 34ZM281.8 31.892H283.362C284.089 31.892 284.701 31.7633 285.197 31.5057C285.697 31.2443 286.072 30.8409 286.322 30.2955C286.576 29.7462 286.703 29.0379 286.703 28.1705C286.703 27.3106 286.576 26.608 286.322 26.0625C286.072 25.517 285.699 25.1155 285.203 24.858C284.707 24.6004 284.095 24.4716 283.368 24.4716H281.8V31.892ZM293.44 22.3636V34H290.98V22.3636H293.44ZM295.021 24.392V22.3636H304.578V24.392H301.016V34H298.584V24.392H295.021Z" fill="white"/>
<path d="M272.91 81.5448C272.95 82.1975 273.546 82.6962 274.242 82.6586C274.938 82.621 275.469 82.0613 275.429 81.4086C275.389 80.7559 274.792 80.2572 274.097 80.2948C273.401 80.3324 272.87 80.8921 272.91 81.5448Z" fill="white"/>
<path d="M280.468 81.1362C280.374 79.6065 279.651 78.1706 278.452 77.1303C278.206 76.9172 277.88 76.8045 277.545 76.817C277.211 76.8296 276.895 76.9663 276.668 77.1972C276.441 77.428 276.321 77.7341 276.334 78.048C276.347 78.362 276.493 78.6581 276.739 78.8713C277.435 79.507 277.853 80.3645 277.908 81.2745C277.964 82.1846 277.655 83.0813 277.041 83.788C276.823 84.0262 276.714 84.3361 276.739 84.6494C276.765 84.9627 276.921 85.2538 277.175 85.4586C277.429 85.6635 277.759 85.7653 278.093 85.7417C278.427 85.7181 278.738 85.571 278.956 85.3327C280.02 84.1702 280.562 82.6659 280.468 81.1362ZM286.766 80.7957C286.677 79.3683 286.283 77.9722 285.607 76.6906C284.932 75.409 283.988 74.2682 282.832 73.3361C282.704 73.2348 282.556 73.1582 282.396 73.1106C282.236 73.0631 282.068 73.0455 281.901 73.0589C281.734 73.0724 281.572 73.1165 281.423 73.1889C281.274 73.2613 281.142 73.3604 281.034 73.4807C280.816 73.7237 280.709 74.0379 280.738 74.3544C280.753 74.5111 280.8 74.6636 280.877 74.8032C280.954 74.9428 281.06 75.0668 281.188 75.1681C282.089 75.8938 282.824 76.7823 283.351 77.7808C283.877 78.7792 284.184 79.8669 284.252 80.979C284.32 82.0911 284.149 83.2047 283.748 84.2533C283.348 85.3018 282.726 86.2638 281.92 87.0817C281.807 87.1976 281.721 87.3332 281.665 87.4808C281.609 87.6283 281.584 87.7849 281.593 87.9413C281.608 88.1722 281.695 88.3939 281.843 88.579C281.991 88.7641 282.194 88.9044 282.426 88.9827C282.658 89.061 282.909 89.0738 283.149 89.0195C283.388 88.9652 283.606 88.8461 283.774 88.6771C284.814 87.6208 285.615 86.3779 286.129 85.0235C286.643 83.669 286.86 82.2308 286.766 80.7957Z" fill="white"/>
<path d="M288.819 92.2109C291.801 88.9552 293.32 84.7411 293.057 80.4556C292.794 76.1701 290.769 72.1476 287.408 69.2348C287.16 69.0481 286.845 68.9565 286.527 68.9784C286.21 69.0003 285.913 69.1341 285.696 69.3529C285.479 69.5717 285.358 69.8593 285.358 70.1581C285.358 70.4569 285.478 70.7447 285.694 70.9639C288.581 73.4612 290.321 76.9131 290.547 80.5913C290.773 84.2694 289.467 87.886 286.905 90.6779C286.693 90.9092 286.585 91.2082 286.602 91.5125C286.613 91.6717 286.657 91.8273 286.734 91.9699C286.81 92.1125 286.916 92.2392 287.045 92.3424C287.299 92.5448 287.629 92.6447 287.961 92.62C288.293 92.5954 288.602 92.4483 288.819 92.2109Z" fill="white"/>
<defs>
<linearGradient id="paint0_linear_64_920" x1="-3.686e-06" y1="7.92661" x2="311.533" y2="203.893" gradientUnits="userSpaceOnUse">
<stop stop-color="#7B7C24" stop-opacity="0"/>
<stop offset="0.00152023" stop-color="#FD0E0E"/>
<stop offset="0.876984" stop-color="#703C6D"/>
</linearGradient>
</defs>
</svg>
