<svg width="121" height="121" viewBox="0 0 121 121" fill="none" xmlns="http://www.w3.org/2000/svg">
<path d="M22 26.6084H91.2756C95.4177 26.6084 98.7756 29.9663 98.7756 34.1084V103.384C98.7756 107.526 95.4177 110.884 91.2756 110.884H22C17.8579 110.884 14.5 107.526 14.5 103.384V34.1084C14.5 29.9663 17.8579 26.6084 22 26.6084Z" stroke="#323977" stroke-width="5"/>
<path d="M63.9928 60.8071C65.3636 60.7544 65.4869 61.0668 65.885 62.2713" stroke="#323977" stroke-width="5" stroke-linecap="round"/>
<path d="M28.4814 63.252H64.1917" stroke="#323977" stroke-width="5" stroke-linecap="round"/>
<path d="M28.4811 76.2991L84.1071 76.2993" stroke="#323977" stroke-width="5" stroke-linecap="round"/>
<path d="M28.481 90.0338L84.1071 90.0339" stroke="#323977" stroke-width="5" stroke-linecap="round"/>
<path d="M65.8553 47.6481L90.7954 15.4096L95.142 9.79095C95.48 9.35412 96.108 9.27395 96.5449 9.61189L108.209 18.6357C108.646 18.9737 108.726 19.6018 108.389 20.0386L104.042 25.6572L79.1214 57.8704C79.0026 58.024 78.8416 58.1397 78.6581 58.2033L65.0518 62.921C64.3456 63.1658 63.6301 62.5776 63.7339 61.8374L65.6559 48.1212C65.6801 47.9489 65.7488 47.7858 65.8553 47.6481Z" fill="white"/>
<path d="M90.7954 15.4096L65.8553 47.6481C65.7488 47.7858 65.6801 47.9489 65.6559 48.1212L63.7339 61.8374C63.6301 62.5776 64.3456 63.1658 65.0518 62.921L78.6581 58.2033C78.8416 58.1397 79.0026 58.024 79.1214 57.8704L104.042 25.6572M90.7954 15.4096L95.142 9.79095C95.48 9.35412 96.108 9.27395 96.5449 9.61189L108.209 18.6357C108.646 18.9737 108.726 19.6018 108.389 20.0386L104.042 25.6572M90.7954 15.4096L104.042 25.6572" stroke="#323977" stroke-width="5" stroke-linecap="round"/>
<path d="M65.7419 47.7933L72.2098 45.3901C72.8917 45.1367 73.6073 45.6731 73.5555 46.3987L73.2422 50.7853C73.1926 51.4804 73.8514 52.0119 74.5203 51.8163L78.9906 50.5094C79.6771 50.3086 80.3463 50.8727 80.2646 51.5833L79.6159 57.2299" stroke="#323977" stroke-width="5" stroke-linecap="round"/>
</svg>
