<svg width="27" height="28" viewBox="0 0 27 28" fill="none" xmlns="http://www.w3.org/2000/svg">
<g clip-path="url(#clip0_47_35)">
<path d="M13.5 14C14.8845 14 16.2378 13.5895 17.389 12.8203C18.5401 12.0511 19.4373 10.9579 19.9672 9.67879C20.497 8.3997 20.6356 6.99224 20.3655 5.63437C20.0954 4.2765 19.4287 3.02922 18.4497 2.05026C17.4708 1.07129 16.2235 0.404603 14.8656 0.134506C13.5078 -0.13559 12.1003 0.003033 10.8212 0.532846C9.54213 1.06266 8.44888 1.95987 7.67971 3.11101C6.91054 4.26216 6.5 5.61553 6.5 7C6.50185 8.85595 7.23995 10.6354 8.5523 11.9477C9.86465 13.2601 11.6441 13.9982 13.5 14ZM13.5 2.33334C14.423 2.33334 15.3252 2.60703 16.0927 3.11981C16.8601 3.63259 17.4582 4.36143 17.8114 5.21415C18.1646 6.06687 18.2571 7.00518 18.077 7.91043C17.8969 8.81567 17.4525 9.64719 16.7998 10.2998C16.1472 10.9525 15.3157 11.3969 14.4104 11.577C13.5052 11.7571 12.5669 11.6647 11.7141 11.3114C10.8614 10.9582 10.1326 10.3601 9.61981 9.59266C9.10703 8.82524 8.83333 7.92298 8.83333 7C8.83333 5.76233 9.325 4.57534 10.2002 3.70017C11.0753 2.825 12.2623 2.33334 13.5 2.33334Z" fill="#FBA834"/>
<path d="M13.5 16C10.7162 16.0031 8.04725 17.1103 6.07879 19.0788C4.11033 21.0473 3.00309 23.7162 3 26.5C3 26.8094 3.12292 27.1062 3.34171 27.325C3.5605 27.5438 3.85725 27.6667 4.16667 27.6667C4.47609 27.6667 4.77283 27.5438 4.99162 27.325C5.21042 27.1062 5.33333 26.8094 5.33333 26.5C5.33333 24.3341 6.19375 22.2568 7.72529 20.7253C9.25684 19.1937 11.3341 18.3333 13.5 18.3333C15.6659 18.3333 17.7432 19.1937 19.2747 20.7253C20.8063 22.2568 21.6667 24.3341 21.6667 26.5C21.6667 26.8094 21.7896 27.1062 22.0084 27.325C22.2272 27.5438 22.5239 27.6667 22.8333 27.6667C23.1428 27.6667 23.4395 27.5438 23.6583 27.325C23.8771 27.1062 24 26.8094 24 26.5C23.9969 23.7162 22.8897 21.0473 20.9212 19.0788C18.9527 17.1103 16.2838 16.0031 13.5 16Z" fill="#FBA834"/>
</g>
<defs>
<clipPath id="clip0_47_35">
<rect width="27" height="27.6667" fill="white"/>
</clipPath>
</defs>
</svg>
