<svg width="98" height="98" viewBox="0 0 98 98" fill="none" xmlns="http://www.w3.org/2000/svg">
<path d="M21.5319 27.0152C22.0297 27.0636 22.4239 27.0912 22.7005 27.0912L23.0669 27.0152L23.7999 27.2364L24.2355 27.0912L24.3807 27.1673C24.3807 27.1673 24.5052 27.1396 24.6711 27.0912C25.0237 27.2364 25.6806 27.3816 26.6417 27.5268C26.6417 27.5891 26.7386 27.6375 26.9322 27.6721L27.0774 27.596C27.5268 27.596 28.7438 28.08 30.7283 29.055C32.7127 30.0299 34.5174 31.807 36.1354 34.393C36.82 36.2599 37.1588 37.8918 37.1588 39.2885C37.1588 39.3369 37.1311 39.3646 37.0827 39.3646L37.1588 39.731V41.3421C36.7716 44.1218 36.3567 46.0164 35.9142 47.0397C35.1605 48.9136 34.1371 50.6906 32.8441 52.3778C32.7335 52.3916 32.2979 52.8756 31.5303 53.8367C31.4197 53.8367 31.0325 54.1271 30.3618 54.7149C30.0091 55.0053 29.5182 55.3026 28.9028 55.593V55.6691L31.6825 56.8376C31.6825 56.8999 31.9037 57.0174 32.3393 57.2041L32.4846 57.1281H32.5606L32.4846 57.2733C33.9919 58.186 35.0153 59.4514 35.5546 61.0763C35.9418 61.9198 36.4328 63.6692 37.0136 66.3382H36.9375L37.0827 66.7047L37.0067 66.8499C37.0551 67.3132 37.1035 67.5829 37.1519 67.652C37.1519 67.7004 37.1242 67.7281 37.0758 67.7281L37.1519 68.0945V69.5535C37.2487 70.2588 37.2971 70.6529 37.2971 70.7221V70.8673C37.2971 70.9779 37.2694 71.0747 37.221 71.1577L37.2971 71.3029C37.2971 71.3513 37.2694 71.379 37.221 71.379C37.221 71.4758 37.2487 71.5242 37.2971 71.5242C37.2487 72.0635 37.2003 73.3773 37.1519 75.4724H37.0758C37.0758 75.5208 37.1035 75.5484 37.1519 75.5484C37.1519 77.851 36.5641 80.2158 35.3956 82.6359C33.7845 84.8139 32.5468 86.0586 31.6686 86.3628C30.0852 87.3239 28.5502 87.9324 27.0635 88.1882C26.8215 88.3819 24.92 88.8244 21.3659 89.502C19.1395 89.8892 16.5534 90.2073 13.6216 90.4493C12.3424 90.4009 11.6372 90.3248 11.5058 90.228C11.2361 90.2764 11.0425 90.3041 10.918 90.3041C10.7936 90.3041 10.6276 90.2073 10.4064 90.0137C10.5032 88.9903 10.5516 88.285 10.5516 87.8978H10.6276L10.5516 87.7526V87.4622C10.7452 86.5495 10.842 85.941 10.842 85.6368L10.7659 85.4916C10.8489 85.2841 10.925 84.9937 10.9872 84.6134L10.9111 84.4682V84.2469C10.925 84.1501 10.9734 84.1017 11.0563 84.1017C10.9595 83.9081 10.9111 83.7353 10.9111 83.5901C11.0079 82.8848 11.084 82.4422 11.1324 82.2763C11.084 82.1933 11.0563 82.0965 11.0563 81.9859L11.1324 81.6955L11.0563 81.5503L11.2776 80.7482C11.2776 80.6998 11.2499 80.6237 11.2015 80.5269C11.2499 79.0195 11.326 78.2589 11.4228 78.2589L11.3468 77.9685L11.4228 77.6781C11.4228 77.6297 11.3952 77.5537 11.3468 77.4569L11.7824 73.3634C11.7824 73.2182 11.81 73.1422 11.8584 73.1422L11.7824 72.997L12.218 66.8568V66.0547C12.218 65.9441 12.1903 65.8473 12.1419 65.7643C12.1419 65.7159 12.1696 65.6883 12.218 65.6883C12.1212 65.2112 12.0728 64.5543 12.0728 63.7176V63.3512C12.0728 63.3028 12.1004 63.2751 12.1488 63.2751L12.0728 63.1299V62.3278C12.0728 62.2794 12.1004 62.2517 12.1488 62.2517C12.1488 62.2033 12.1212 62.1757 12.0728 62.1757L12.218 60.4194C12.0244 53.8782 11.8515 49.7641 11.7063 48.07C11.7063 47.8141 11.734 47.3993 11.7824 46.8254C11.6856 46.3414 11.6372 45.8504 11.6372 45.3664V43.9074C11.6372 43.859 11.6648 43.8314 11.7132 43.8314C11.5888 43.3958 11.5196 43.1745 11.492 43.1745L11.568 42.808C11.568 41.6602 11.5196 40.4916 11.4228 39.3023H11.4989C11.4505 39.2055 11.4228 39.1295 11.4228 39.0811C11.4228 39.0327 11.4505 38.9566 11.4989 38.8598C11.3537 37.9125 11.2776 36.5711 11.2776 34.8424C11.2776 34.794 11.3053 34.718 11.3537 34.6212L11.2085 33.8882C11.3053 33.584 11.3537 33.1207 11.3537 32.4984C11.2085 31.9729 11.1324 31.6064 11.1324 31.399L11.2085 31.2538L11.1324 30.8182C11.1324 30.7698 11.1601 30.7421 11.2085 30.7421L11.1324 30.5969V29.7948C11.1324 29.7326 12.0313 29.3661 13.836 28.6954C14.5551 28.405 15.1359 28.2321 15.5923 28.1837C15.5923 28.0523 16.5188 27.7827 18.3719 27.3816C19.0634 27.1396 20.1144 27.0152 21.5112 27.0152H21.5319ZM21.608 41.6325L21.684 41.7777C21.684 41.9229 21.6564 41.999 21.608 41.999C21.608 42.0474 21.6356 42.1235 21.684 42.2203C21.684 42.3931 21.6564 42.6075 21.608 42.8772L21.7532 44.7787H21.6771L21.7532 44.9239V45.1451C21.7532 45.4286 21.7255 45.5946 21.6771 45.6568C21.7393 46.9222 21.8085 47.6759 21.8984 47.9248C21.85 48.1184 21.8223 48.2913 21.8223 48.4365C21.8223 48.5955 21.85 48.72 21.8984 48.8029C21.85 49.0726 21.8223 49.287 21.8223 49.4598C21.8707 49.9577 21.8984 50.2481 21.8984 50.338H21.8223L21.9675 51.0709L21.8914 51.5065V51.6517L21.9675 52.0182C22.9909 51.79 24.2355 51.1262 25.6945 50.0476C26.621 48.9758 27.0843 48.2913 27.0843 48.0008C27.0843 47.8418 27.2779 47.3578 27.672 46.5419C27.5752 46.5419 27.5268 46.4935 27.5268 46.3967C27.6236 46.2376 27.672 46.0924 27.672 45.9611C27.672 45.5116 27.4508 45.0483 27.0151 44.5712V44.4952H27.0912L27.2364 44.5712V44.426L27.0912 44.2048V44.1287C27.0912 44.0803 27.1189 44.0526 27.1673 44.0526C26.8146 43.1607 26.2545 42.5798 25.487 42.2963C24.353 41.8123 23.2605 41.5634 22.1957 41.5634L22.0505 41.6395C21.9675 41.5911 21.8707 41.5634 21.7601 41.5634L21.6149 41.6395L21.608 41.6325ZM22.4792 64.7272V65.3149C22.4792 65.3633 22.4515 65.391 22.4031 65.391C22.4515 65.633 22.4999 65.7574 22.5483 65.7574L22.4723 66.1239V69.8508C22.4723 69.9615 22.4999 70.0583 22.5483 70.1413L22.4723 70.2865C22.5207 71.2338 22.5691 71.8422 22.6175 72.1119C22.5691 72.2917 22.5414 72.4922 22.5414 72.6996V73.2113C22.5414 73.3219 22.5691 73.4188 22.6175 73.5017C22.6175 73.5501 22.5898 73.5778 22.5414 73.5778L22.6175 73.9443C22.6659 75.1405 22.6935 75.7974 22.6935 75.9149C22.6451 76.0117 22.6175 76.0878 22.6175 76.1362C22.6175 76.1846 22.6451 76.2122 22.6935 76.2122C22.6935 76.309 22.6659 76.3574 22.6175 76.3574C22.6659 76.9313 22.6935 77.3462 22.6935 77.6021V79.1371C23.1914 79.1371 23.9935 78.9158 25.1067 78.4802C25.8604 78.335 26.9114 77.5053 28.2459 75.9979C28.8337 75.3617 29.1241 75.0022 29.1241 74.8985C29.4145 74.29 29.6842 73.6331 29.9262 72.9278C30.0714 72.4507 30.1474 71.9183 30.1474 71.3167V69.3461C30.1474 69.0073 29.8086 68.302 29.1241 67.2302C29.1241 67.2786 29.0964 67.3063 29.048 67.3063L28.972 67.1611C28.972 67.1127 28.9996 67.085 29.048 67.085C28.5225 66.2069 27.4024 65.4255 25.6875 64.7479C24.6642 64.6027 24.0073 64.5266 23.7169 64.5266H23.6408L23.1292 64.6027V64.5266C22.8595 64.6718 22.6451 64.7479 22.4723 64.7479L22.4792 64.7272Z" fill="#FBA834"/>
<path d="M51.2023 26.7524C51.6863 26.7524 51.9352 26.9598 51.9352 27.3747C51.5964 31.7931 51.3475 36.1493 51.2023 40.4294C50.7044 53.8436 50.4624 62.0167 50.4693 64.9553C50.663 69.512 50.905 73.6608 51.2023 77.3877C51.3337 78.7914 51.6033 79.552 52.0044 79.6695H52.1496C53.0001 79.6695 53.6362 78.6807 54.0511 76.6962C54.1963 75.5069 54.2724 74.0134 54.2724 72.2087C54.1271 60.5093 54.0511 40.8512 54.0511 27.6375L54.1963 27.5683C56.8515 27.5338 59.3338 27.3471 61.6502 27.0152C61.7608 27.0152 61.83 27.3401 61.8715 27.9832C61.588 29.7464 61.4428 38.922 61.4358 41.1209C61.2077 53.7538 61.2077 65.059 61.4358 75.0437C61.5326 80.1328 61.021 83.7698 59.9008 85.9618C59.0019 87.5936 58.2897 88.5616 57.785 88.8659C56.409 89.986 54.6527 90.5115 52.523 90.4562L48.9412 90.3871C46.8461 90.3871 44.8478 89.9722 42.9463 89.1424C40.9618 88.1053 39.5374 85.5192 38.6731 81.3912C38.2444 78.4318 38.1476 75.0713 38.3827 71.3029C38.4104 67.9079 38.4449 65.792 38.4933 64.9622C38.8322 59.7348 39.1018 55.8212 39.2954 53.2213C39.3922 52.3086 39.4683 49.8954 39.5167 45.968C39.5167 41.8676 39.4406 35.8589 39.2954 27.9348C39.3577 27.5199 39.4545 27.3125 39.5858 27.3125C40.464 27.4508 43.4442 27.3955 48.5402 27.1396C49.771 27.0221 50.656 26.8976 51.2092 26.7593L51.2023 26.7524Z" fill="#FBA834"/>
<path d="M75.507 27.0152C76.8415 27.0359 78.3765 27.1051 80.1121 27.2157C83.839 27.3816 85.9272 27.43 86.3836 27.3471C86.7846 27.2572 87.075 27.2157 87.2479 27.2157L87.5798 27.8173C87.559 32.0282 87.5037 34.3653 87.4138 34.8217C87.2825 38.7492 87.2133 40.9273 87.2133 41.3767C87.1995 41.9299 87.2479 42.6628 87.3447 43.5755C87.4346 44.1564 87.4622 44.7234 87.4277 45.2765L87.3585 45.9749C87.3585 46.0648 87.317 46.1063 87.2271 46.1063C87.1511 46.1063 86.9713 46.0648 86.6947 45.9749C85.381 45.885 84.2954 45.7744 83.4241 45.643C82.8986 45.5531 81.9029 45.5116 80.4232 45.5116C77.8233 45.5116 76.0256 46.2653 75.0368 47.7796C74.6703 48.7338 74.5389 50.0268 74.6357 51.6448C74.5943 53.09 75.0299 54.8393 75.9564 56.8999C76.3782 57.702 77.1803 58.103 78.3558 58.103C79.2132 58.1376 80.0567 58.3381 80.8934 58.7046C81.5918 58.9466 82.1795 59.5274 82.6428 60.4401C83.1337 61.906 83.4034 64.0841 83.4587 66.9744C83.6938 71.2545 83.756 76.2537 83.6592 81.979C83.6039 84.0119 83.3965 85.6506 83.0438 86.8814C82.788 87.7596 82.4907 88.3957 82.1449 88.7829C81.5641 89.7578 80.4578 90.4701 78.826 90.9195C77.4361 91.1753 75.7766 91.2652 73.8406 91.1892C72.271 91.1339 70.6875 90.8365 69.0903 90.3041C67.1334 89.7579 65.6399 88.8451 64.6027 87.5659C63.7107 85.9203 63.2336 84.406 63.1714 83.0162C63.1368 82.4837 63.1368 81.7093 63.1714 80.6998C63.1852 80.444 63.206 79.5312 63.2405 77.9616C63.2613 77.3047 63.1921 76.3021 63.0262 74.9607C62.9847 74.5804 62.9363 74.1863 62.8948 73.7783C62.8533 73.3703 62.7358 72.6443 62.556 71.6071C62.3762 70.57 62.3417 69.2424 62.4661 67.6244C62.6113 67.4792 63.4342 67.6728 64.9346 68.2052C68.3712 68.9934 71.1992 69.3599 73.4188 69.3046C74.1725 69.3945 74.5942 69.436 74.6841 69.436V70.0375C74.5528 70.7359 74.4214 71.4965 74.3038 72.3055C73.9927 74.2208 73.8406 75.9287 73.8544 77.443C73.8406 79.0126 74.048 80.2573 74.4698 81.1769C74.7948 81.8753 75.507 82.1864 76.6064 82.1104C77.208 82.1104 77.6712 80.8865 77.9893 78.4387C78.176 76.5165 78.2382 74.449 78.176 72.2364C78.2106 69.1663 78.0861 67.1473 77.8095 66.1654C77.4638 65.4532 76.7101 65.0729 75.5415 65.0314C75.1198 64.9623 74.6288 65.0107 74.0757 65.1628V65.0936C73.2321 65.4255 72.43 65.5846 71.6763 65.5638C70.1897 65.3771 69.2286 65.1282 68.8068 64.8309C68.3642 64.5958 68.0531 64.3538 67.8733 64.0979C67.5621 63.7453 67.2856 63.0884 67.0366 62.1273C66.7808 61.5603 66.3798 59.7279 65.8335 56.6233C65.6122 55.2888 65.4739 53.9543 65.4186 52.6198C65.308 47.261 65.3357 43.0362 65.5016 39.9454C65.5224 38.4864 65.716 36.8131 66.0824 34.9254C66.4835 32.6782 67.41 30.6591 68.869 28.8752C69.8025 28.0662 70.6391 27.5268 71.3859 27.271C72.0428 27.0912 73.4188 27.0013 75.5208 27.0013L75.507 27.0152Z" fill="#FBA834"/>
<path d="M11.5266 11.0564V10.1229H22.0575V11.0564H11.5266ZM16.3115 25.1967V10.1229H17.2657V25.1897H16.3115V25.1967Z" fill="white"/>
<path d="M24.8994 25.1967V10.1229H25.8536V25.1897H24.8994V25.1967ZM25.3489 18.1576V17.2242H33.7639V18.1576H25.3489ZM33.1969 25.1967V10.1229H34.1511V25.1897H33.1969V25.1967Z" fill="white"/>
<path d="M36.6264 25.1967L41.5842 10.1299H42.9394L47.8971 25.1967H46.9291L42.3102 10.9458H42.2065L37.5875 25.1967H36.6195H36.6264ZM38.3896 20.9788V20.0453H46.0302V20.9788H38.3896Z" fill="white"/>
</svg>
