<svg width="21" height="21" viewBox="0 0 21 21" fill="none" xmlns="http://www.w3.org/2000/svg">
<path d="M20.979 15.1095L17.3696 20.958L15.8821 20.0384L19.4915 14.1899L20.979 15.1095ZM6.804 1.54701L5.88788 0.0542603L-0.00524902 3.66101L0.907376 5.15289L6.804 1.54701ZM17.6575 4.57976L19.32 2.91726L18.0845 1.67826L16.4299 3.33289C15.2352 2.38548 13.7743 1.83502 12.2515 1.75847C10.7286 1.68191 9.21994 2.08307 7.93625 2.90589L2.0195 6.18626C1.70463 6.39454 1.44001 6.67023 1.24481 6.99337C1.0496 7.31651 0.928694 7.67901 0.890839 8.05463C0.852984 8.43025 0.899128 8.80959 1.02593 9.16518C1.15273 9.52077 1.35702 9.84372 1.624 10.1106L10.885 19.3751C11.1199 19.6125 11.3995 19.801 11.7077 19.9298C12.0159 20.0585 12.3465 20.1248 12.6805 20.125C12.7902 20.1248 12.8997 20.1181 13.0086 20.1049C13.3928 20.058 13.761 19.9233 14.0847 19.7112C14.4083 19.4991 14.6788 19.2152 14.875 18.8816L18.312 12.7689C19.0256 11.4924 19.3444 10.0328 19.2278 8.57497C19.1113 7.11717 18.5648 5.72674 17.6575 4.57976ZM2.625 15.9976C2.61986 16.7145 2.80123 17.4205 3.15131 18.0461C3.5014 18.6718 4.00815 19.1956 4.62183 19.5663C5.23552 19.9369 5.93503 20.1416 6.65172 20.1602C7.3684 20.1789 8.07762 20.0109 8.70975 19.6726L3.115 14.0726C2.79723 14.6648 2.62901 15.3256 2.625 15.9976Z" fill="#333A73"/>
</svg>
