<svg width="30" height="30" viewBox="0 0 30 30" fill="none" xmlns="http://www.w3.org/2000/svg">
<path d="M0 4.91968C0 3.6149 0.395088 2.36356 1.09835 1.44094C1.80161 0.518322 2.75544 0 3.75 0H26.25C27.2446 0 28.1984 0.518322 28.9016 1.44094C29.6049 2.36356 30 3.6149 30 4.91968V24.5984C30 25.9032 29.6049 27.1545 28.9016 28.0771C28.1984 28.9998 27.2446 29.5181 26.25 29.5181H3.75C2.75544 29.5181 1.80161 28.9998 1.09835 28.0771C0.395088 27.1545 0 25.9032 0 24.5984V4.91968ZM3.75 2.45984C3.25272 2.45984 2.77581 2.719 2.42417 3.18031C2.07254 3.64162 1.875 4.26729 1.875 4.91968V7.37952H28.125V4.91968C28.125 4.26729 27.9275 3.64162 27.5758 3.18031C27.2242 2.719 26.7473 2.45984 26.25 2.45984H3.75ZM28.125 12.2992H1.875V24.5984C1.875 25.2508 2.07254 25.8765 2.42417 26.3378C2.77581 26.7991 3.25272 27.0582 3.75 27.0582H26.25C26.7473 27.0582 27.2242 26.7991 27.5758 26.3378C27.9275 25.8765 28.125 25.2508 28.125 24.5984V12.2992Z" fill="#281F22"/>
<path d="M3.75 19.6787C3.75 19.0263 3.94754 18.4007 4.29917 17.9393C4.65081 17.478 5.12772 17.2189 5.625 17.2189H7.5C7.99728 17.2189 8.47419 17.478 8.82582 17.9393C9.17746 18.4007 9.375 19.0263 9.375 19.6787V22.1386C9.375 22.7909 9.17746 23.4166 8.82582 23.8779C8.47419 24.3392 7.99728 24.5984 7.5 24.5984H5.625C5.12772 24.5984 4.65081 24.3392 4.29917 23.8779C3.94754 23.4166 3.75 22.7909 3.75 22.1386V19.6787Z" fill="#281F22"/>
</svg>
