<svg width="121" height="121" viewBox="0 0 121 121" fill="none" xmlns="http://www.w3.org/2000/svg">
<g clip-path="url(#clip0_95_493)">
<circle cx="61.5" cy="56.5" r="27.5" fill="#F3AB55"/>
<path d="M57 66.0078V65.3437C57.013 63.0651 57.2148 61.2487 57.6055 59.8945C58.0091 58.5404 58.5951 57.4466 59.3633 56.6133C60.1315 55.7799 61.056 55.0247 62.1367 54.3477C62.944 53.8268 63.6667 53.2865 64.3047 52.7266C64.9427 52.1667 65.4505 51.5482 65.8281 50.8711C66.2057 50.181 66.3945 49.4128 66.3945 48.5664C66.3945 47.668 66.1797 46.8802 65.75 46.2031C65.3203 45.526 64.7409 45.0052 64.0117 44.6406C63.2956 44.276 62.5013 44.0937 61.6289 44.0937C60.7826 44.0937 59.9818 44.2826 59.2266 44.6602C58.4714 45.0247 57.8529 45.5716 57.3711 46.3008C56.8893 47.0169 56.6289 47.9089 56.5898 48.9766H48.6211C48.6862 46.3724 49.3112 44.224 50.4961 42.5312C51.681 40.8255 53.25 39.556 55.2031 38.7227C57.1562 37.8763 59.3112 37.4531 61.668 37.4531C64.2591 37.4531 66.5508 37.8828 68.543 38.7422C70.5352 39.5885 72.0977 40.819 73.2305 42.4336C74.3633 44.0482 74.9297 45.9948 74.9297 48.2734C74.9297 49.7969 74.6758 51.151 74.168 52.3359C73.6732 53.5078 72.9766 54.5495 72.0781 55.4609C71.1797 56.3594 70.1185 57.1732 68.8945 57.9023C67.8659 58.5143 67.0195 59.1523 66.3555 59.8164C65.7044 60.4805 65.2161 61.2487 64.8906 62.1211C64.5781 62.9935 64.4154 64.0677 64.4023 65.3437V66.0078H57ZM60.8672 78.5078C59.5651 78.5078 58.4518 78.0521 57.5273 77.1406C56.6159 76.2161 56.1667 75.1094 56.1797 73.8203C56.1667 72.5443 56.6159 71.4505 57.5273 70.5391C58.4518 69.6276 59.5651 69.1719 60.8672 69.1719C62.1042 69.1719 63.1914 69.6276 64.1289 70.5391C65.0664 71.4505 65.5417 72.5443 65.5547 73.8203C65.5417 74.6797 65.3138 75.4674 64.8711 76.1836C64.4414 76.8867 63.875 77.4531 63.1719 77.8828C62.4688 78.2995 61.7005 78.5078 60.8672 78.5078Z" fill="white"/>
</g>
<defs>
<clipPath id="clip0_95_493">
<rect width="121" height="121" fill="white"/>
</clipPath>
</defs>
</svg>
